<svg xmlns="http://www.w3.org/2000/svg" viewBox="0 0 500 63"><path d="M126.5 25.7c0 .7-.5 1.1-1.1 1.1h-21.6c-.7 0-1.1-.5-1.1-1.1v-2.5c0-.7.5-1.1 1.1-1.1h21.6c.7 0 1.1.5 1.1 1.1v2.5zM136.1 32.8c0 .7-.5 1.1-1.1 1.1h-26.7c-.7 0-1.1-.5-1.1-1.1v-2.5c0-.7.5-1.1 1.1-1.1h26.4c.7 0 1.1.5 1.1 1.1l.3 2.5zM143.3 40c0 .7-.5 1.1-1.1 1.1h-28.9c-.7 0-1.1-.5-1.1-1.1v-2.5c0-.7.5-1.1 1.1-1.1h28.9c.7 0 1.1.5 1.1 1.1V40zM143.3 47.3c0 .7-.5 1.1-1.1 1.1h-28.9c-.7 0-1.1-.5-1.1-1.1v-2.5c0-.7.5-1.1 1.1-1.1h28.9c.7 0 1.1.5 1.1 1.1v2.5zM136.1 54.3c0 .7-.5 1.1-1.1 1.1h-26.7c-.7 0-1.1-.5-1.1-1.1v-2.5c0-.7.5-1.1 1.1-1.1h26.4c.7 0 1.1.5 1.1 1.1l.3 2.5zM126.5 61.6c0 .7-.5 1.1-1.1 1.1h-21.6c-.7 0-1.1-.5-1.1-1.1v-2.5c0-.7.5-1.1 1.1-1.1h21.6c.7 0 1.1.5 1.1 1.1v2.5z"/><g><path d="M85.6 3.9c0 .7.4 1.1 1.1 1.1h21.6c.7 0 1.1-.5 1.1-1.1V1.4c0-.7-.5-1.1-1.1-1.1H86.7c-.7 0-1.1.5-1.1 1.1v2.5zM76.3 11.2c0 .7.5 1.1 1.1 1.1h26.4c.7 0 1.1-.5 1.1-1.1V8.7c0-.7-.5-1.1-1.1-1.1H77.4c-.7-.1-1.1.4-1.1 1.1v2.5zM69 18.4c0 .7.5 1.1 1.1 1.1H99c.7 0 1.1-.5 1.1-1.1v-2.5c0-.7-.5-1.1-1.1-1.1H70.1c-.7 0-1.1.5-1.1 1.1v2.5zM69 25.7c0 .7.5 1.1 1.1 1.1H99c.7 0 1.1-.5 1.1-1.1v-2.5c0-.7-.5-1.1-1.1-1.1H70.1c-.7 0-1.1.5-1.1 1.1v2.5zM76.3 32.8c0 .7.5 1.1 1.1 1.1h26.4c.7 0 1.1-.5 1.1-1.1v-2.5c0-.7-.5-1.1-1.1-1.1H77.4c-.7 0-1.1.5-1.1 1.1v2.5zM85.6 40c0 .7.5 1.1 1.1 1.1h21.6c.7 0 1.1-.5 1.1-1.1v-2.5c0-.7-.5-1.1-1.1-1.1H86.7c-.7 0-1.1.5-1.1 1.1V40z"/></g><g><path d="M171.7 45.7c-1.1.2-2.3.2-3.4.2-3 0-5.2-.5-6.8-1.4-1.4-.9-2.5-2.3-3-4.3s-.7-5-.7-8.9.2-6.8.7-8.9c.5-2 1.4-3.4 3-4.3 1.4-.9 3.6-1.4 6.8-1.4 1.1 0 2 0 3.2.2 1.1.2 2 .5 2.7.5v5c-2.3-.2-3.9-.5-4.5-.5-1.8 0-3.2.2-3.9.5-.7.2-1.1 1.1-1.4 2.3s-.2 3.2-.2 6.4 0 5.2.2 6.4c.2 1.1.7 1.8 1.4 2.3.7.5 2 .5 3.9.5 1.6 0 3.2-.2 4.8-.5v5c-.5.5-1.6.7-2.8.9zM181.5 44.6c-1.4-.9-2.3-2-2.7-4.1-.5-1.8-.5-5-.5-9.1 0-4.3.2-7.3.5-9.1.2-1.8 1.1-3.2 2.7-4.1 1.4-.9 3.9-1.1 7.3-1.1s5.9.5 7.3 1.1c1.4.9 2.3 2 2.7 4.1.5 1.8.5 4.8.5 9.1s-.2 7.3-.5 9.1c-.5 1.8-1.1 3.2-2.7 4.1s-3.9 1.1-7.3 1.1c-3.4.2-6.1-.2-7.3-1.1zm10.2-4.6c.5-.2.9-1.1.9-2 .2-1.1.2-3.4.2-6.6s0-5.5-.2-6.6-.5-1.8-.9-2c-.5-.2-1.6-.5-3-.5s-2.5.2-3 .5c-.5.2-.9 1.1-.9 2-.2 1.1-.2 3.4-.2 6.6s0 5.5.2 6.6.5 1.8.9 2c.5.2 1.6.5 3 .5 1.5 0 2.4 0 3-.5zM218.3 45.5l-8.2-16.1h-.2v16.1h-6.1V17.3h6.4l7.7 14.8h.2V17.3h6.1v28.2h-5.9zM233.8 45.5V23h-6.6v-5.5h19.5V23h-6.6v22.5h-6.3zM249.7 45.5V17.3h16.8v5.2h-10.7v5.9h9.1v5.2h-9.1V40h10.7v5.2h-16.8v.3zM285.6 45.5l-8.2-16.1h-.2v16.1h-6.1V17.3h6.4l7.7 14.8h.2V17.3h6.1v28.2h-5.9zM301.3 45.5V23h-6.6v-5.5h19.5V23h-6.6v22.5h-6.3zM317.2 45.3v-5c3.4.2 5.7.5 7.3.5 1.1 0 2 0 2.7-.2s1.1-.2 1.4-.5c.2-.2.5-.5.5-.9v-1.6c0-.9 0-1.6-.2-1.8-.2-.5-.5-.7-.7-.9-.5-.2-.9-.5-1.8-.5l-4.5-.7c-2-.2-3.4-1.1-4.3-2.5-.9-1.4-1.1-3.2-1.1-5.7 0-2.3.5-4.1 1.1-5.5.7-1.1 1.8-2 3.2-2.5s3.2-.7 5.2-.7c2.5 0 5.2.2 8 .9v5c-2.5-.2-4.5-.5-6.6-.5s-3.4.2-3.9.5c-.5.2-.5.5-.7.9-.2.5-.2.9-.2 1.6s0 1.4.2 1.6c.2.2.2.5.5.7.2.2.7.2 1.6.5l4.8.7c1.1.2 2 .5 2.7.9.7.5 1.4 1.1 1.8 2 .5 1.1.9 3 .9 5.2 0 2.7-.5 4.5-1.1 5.9-.7 1.4-1.8 2.3-3 2.7s-3 .7-5 .7c-3.6-.2-6.5-.6-8.8-.8zM343.6 45.5V23H337v-5.5h19.5V23H350v22.5h-6.4zM373.6 45.5l-1.4-5.7h-8.4l-1.4 5.7H356l7.5-28.2h8.9l7.5 28.2h-6.3zm-5.7-22.3l-3 11.4h5.7l-2.7-11.4zM395.9 45.7c-1.1.2-2.3.2-3.4.2-3 0-5.2-.5-6.8-1.4-1.6-.9-2.5-2.3-3-4.3s-.7-5-.7-8.9.2-6.8.7-8.9c.5-2 1.4-3.4 3-4.3 1.4-.9 3.6-1.4 6.8-1.4 1.1 0 2 0 3.2.2 1.1.2 2 .5 2.7.5v5c-2.3-.2-3.9-.5-4.5-.5-1.8 0-3.2.2-3.9.5-.7.5-1.1 1.1-1.4 2.3s-.2 3.2-.2 6.4 0 5.2.2 6.4c.2 1.1.7 1.8 1.4 2.3.7.5 2 .5 3.9.5 1.6 0 3.2-.2 4.8-.5v5c-.8.5-1.7.7-2.8.9zM417 45.5l-6.4-11.6h-1.8v11.6h-6.4V17.3h6.4v11.1h1.8l6.4-11.1h6.8l-8.2 13.4 8.2 14.5-6.8.3z"/></g><g><path d="M430 22.7c-.6.6-1.4.9-2.2.9-.9 0-1.6-.3-2.3-.9-.6-.6-.9-1.4-.9-2.3s.3-1.7 1-2.3c.6-.6 1.4-.9 2.2-.9.9 0 1.6.3 2.2.9s.9 1.4.9 2.2c.1 1-.2 1.8-.9 2.4zm-4.1-4.1c-.5.5-.8 1.1-.8 1.8s.3 1.4.8 1.9 1.1.8 1.9.8c.7 0 1.3-.3 1.9-.8.5-.5.8-1.1.8-1.9 0-.7-.3-1.3-.8-1.8s-1.1-.8-1.9-.8c-.7 0-1.4.3-1.9.8zm.5 3.6v-3.5h1.7c.3 0 .5.1.7.2.3.2.5.5.5.8s-.1.5-.2.6c-.2.1-.4.2-.6.2.2 0 .4.1.5.2.2.2.3.4.3.8v.6h-.9c0-.1 0-.3-.1-.5s0-.4-.1-.4c0-.1-.1-.2-.3-.3-.1 0-.2 0-.3-.1h-.4V22h-.8v.2zm1.7-2.8c-.1 0-.3-.1-.5-.1h-.2v1h.4c.2 0 .4 0 .5-.1s.2-.2.2-.4c-.1-.2-.2-.3-.4-.4z"/></g></svg>