<?xml version="1.0" encoding="UTF-8"?> <!-- Generator: Adobe Illustrator 25.4.1, SVG Export Plug-In . SVG Version: 6.00 Build 0) --> <svg xmlns="http://www.w3.org/2000/svg" xmlns:xlink="http://www.w3.org/1999/xlink" version="1.1" id="Layer_1" x="0px" y="0px" viewBox="0 0 500 63" style="enable-background:new 0 0 500 63;" xml:space="preserve"> <g> <g> <g id="XMLID_1_"> <g id="XMLID_63_"> <g id="XMLID_119_"> <g id="XMLID_164_"> <g id="XMLID_203_"> <path id="XMLID_204_" d="M126.5,25.7c0,0.7-0.5,1.1-1.1,1.1h-21.6c-0.7,0-1.1-0.5-1.1-1.1v-2.5c0-0.7,0.5-1.1,1.1-1.1h21.6 c0.7,0,1.1,0.5,1.1,1.1V25.7z"></path> </g> <g id="XMLID_201_"> <path id="XMLID_202_" d="M136.1,32.8c0,0.7-0.5,1.1-1.1,1.1h-26.7c-0.7,0-1.1-0.5-1.1-1.1v-2.5c0-0.7,0.5-1.1,1.1-1.1h26.4 c0.7,0,1.1,0.5,1.1,1.1L136.1,32.8L136.1,32.8z"></path> </g> <g id="XMLID_199_"> <path id="XMLID_200_" d="M143.3,40c0,0.7-0.5,1.1-1.1,1.1h-28.9c-0.7,0-1.1-0.5-1.1-1.1v-2.5c0-0.7,0.5-1.1,1.1-1.1h28.9 c0.7,0,1.1,0.5,1.1,1.1L143.3,40L143.3,40z"></path> </g> <g id="XMLID_172_"> <path id="XMLID_197_" d="M143.3,47.3c0,0.7-0.5,1.1-1.1,1.1h-28.9c-0.7,0-1.1-0.5-1.1-1.1v-2.5c0-0.7,0.5-1.1,1.1-1.1h28.9 c0.7,0,1.1,0.5,1.1,1.1L143.3,47.3L143.3,47.3z"></path> </g> <g id="XMLID_223_"> <path id="XMLID_171_" d="M136.1,54.3c0,0.7-0.5,1.1-1.1,1.1h-26.7c-0.7,0-1.1-0.5-1.1-1.1v-2.5c0-0.7,0.5-1.1,1.1-1.1h26.4 c0.7,0,1.1,0.5,1.1,1.1L136.1,54.3L136.1,54.3z"></path> </g> <g id="XMLID_167_"> <path id="XMLID_168_" d="M126.5,61.6c0,0.7-0.5,1.1-1.1,1.1h-21.6c-0.7,0-1.1-0.5-1.1-1.1v-2.5c0-0.7,0.5-1.1,1.1-1.1h21.6 c0.7,0,1.1,0.5,1.1,1.1V61.6z"></path> </g> </g> <g id="XMLID_121_"> <g id="XMLID_162_"> <path id="XMLID_163_" d="M85.6,3.9C85.6,4.6,86,5,86.7,5h21.6c0.7,0,1.1-0.5,1.1-1.1V1.4c0-0.7-0.5-1.1-1.1-1.1H86.7 c-0.7,0-1.1,0.5-1.1,1.1V3.9L85.6,3.9z"></path> </g> <g id="XMLID_160_"> <path id="XMLID_161_" d="M76.3,11.2c0,0.7,0.5,1.1,1.1,1.1h26.4c0.7,0,1.1-0.5,1.1-1.1V8.7c0-0.7-0.5-1.1-1.1-1.1H77.4 c-0.7-0.1-1.1,0.4-1.1,1.1V11.2L76.3,11.2z"></path> </g> <g id="XMLID_144_"> <path id="XMLID_145_" d="M69,18.4c0,0.7,0.5,1.1,1.1,1.1H99c0.7,0,1.1-0.5,1.1-1.1v-2.5c0-0.7-0.5-1.1-1.1-1.1H70.1 c-0.7,0-1.1,0.5-1.1,1.1V18.4z"></path> </g> <g id="XMLID_130_"> <path id="XMLID_141_" d="M69,25.7c0,0.7,0.5,1.1,1.1,1.1H99c0.7,0,1.1-0.5,1.1-1.1v-2.5c0-0.7-0.5-1.1-1.1-1.1H70.1 c-0.7,0-1.1,0.5-1.1,1.1V25.7z"></path> </g> <g id="XMLID_128_"> <path id="XMLID_129_" d="M76.3,32.8c0,0.7,0.5,1.1,1.1,1.1h26.4c0.7,0,1.1-0.5,1.1-1.1v-2.5c0-0.7-0.5-1.1-1.1-1.1H77.4 c-0.7,0-1.1,0.5-1.1,1.1V32.8L76.3,32.8z"></path> </g> <g id="XMLID_125_"> <path id="XMLID_127_" d="M85.6,40c0,0.7,0.5,1.1,1.1,1.1h21.6c0.7,0,1.1-0.5,1.1-1.1v-2.5c0-0.7-0.5-1.1-1.1-1.1H86.7 c-0.7,0-1.1,0.5-1.1,1.1V40L85.6,40z"></path> </g> </g> </g> </g> </g> <g id="XMLID_44_"> <g id="XMLID_288_"> <path id="XMLID_61_" d="M171.7,45.7c-1.1,0.2-2.3,0.2-3.4,0.2c-3,0-5.2-0.5-6.8-1.4c-1.4-0.9-2.5-2.3-3-4.3s-0.7-5-0.7-8.9 s0.2-6.8,0.7-8.9c0.5-2,1.4-3.4,3-4.3c1.4-0.9,3.6-1.4,6.8-1.4c1.1,0,2,0,3.2,0.2c1.1,0.2,2,0.5,2.7,0.5v5 c-2.3-0.2-3.9-0.5-4.5-0.5c-1.8,0-3.2,0.2-3.9,0.5c-0.7,0.2-1.1,1.1-1.4,2.3s-0.2,3.2-0.2,6.4s0,5.2,0.2,6.4 c0.2,1.1,0.7,1.8,1.4,2.3c0.7,0.5,2,0.5,3.9,0.5c1.6,0,3.2-0.2,4.8-0.5v5C174,45.3,172.9,45.5,171.7,45.7z"></path> <path id="XMLID_59_" d="M181.5,44.6c-1.4-0.9-2.3-2-2.7-4.1c-0.5-1.8-0.5-5-0.5-9.1c0-4.3,0.2-7.3,0.5-9.1 c0.2-1.8,1.1-3.2,2.7-4.1c1.4-0.9,3.9-1.1,7.3-1.1c3.4,0,5.9,0.5,7.3,1.1c1.4,0.9,2.3,2,2.7,4.1c0.5,1.8,0.5,4.8,0.5,9.1 s-0.2,7.3-0.5,9.1c-0.5,1.8-1.1,3.2-2.7,4.1s-3.9,1.1-7.3,1.1C185.4,45.9,182.7,45.5,181.5,44.6z M191.7,40 c0.5-0.2,0.9-1.1,0.9-2c0.2-1.1,0.2-3.4,0.2-6.6s0-5.5-0.2-6.6s-0.5-1.8-0.9-2c-0.5-0.2-1.6-0.5-3-0.5c-1.4,0-2.5,0.2-3,0.5 c-0.5,0.2-0.9,1.1-0.9,2c-0.2,1.1-0.2,3.4-0.2,6.6s0,5.5,0.2,6.6s0.5,1.8,0.9,2c0.5,0.2,1.6,0.5,3,0.5 C190.2,40.5,191.1,40.5,191.7,40z"></path> <path id="XMLID_53_" d="M218.3,45.5l-8.2-16.1h-0.2v16.1h-6.1V17.3h6.4l7.7,14.8h0.2V17.3h6.1v28.2H218.3z"></path> <path id="XMLID_52_" d="M233.8,45.5V23h-6.6v-5.5h19.5V23h-6.6v22.5H233.8z"></path> <path id="XMLID_51_" d="M249.7,45.5V17.3h16.8v5.2h-10.7v5.9h9.1v5.2h-9.1V40h10.7v5.2h-16.8V45.5z"></path> <path id="XMLID_50_" d="M285.6,45.5l-8.2-16.1h-0.2v16.1h-6.1V17.3h6.4l7.7,14.8h0.2V17.3h6.1v28.2H285.6z"></path> <path id="XMLID_49_" d="M301.3,45.5V23h-6.6v-5.5h19.5V23h-6.6v22.5H301.3z"></path> <path id="XMLID_298_" d="M317.2,45.3v-5c3.4,0.2,5.7,0.5,7.3,0.5c1.1,0,2,0,2.7-0.2s1.1-0.2,1.4-0.5c0.2-0.2,0.5-0.5,0.5-0.9 s0-0.9,0-1.6c0-0.9,0-1.6-0.2-1.8c-0.2-0.5-0.5-0.7-0.7-0.9c-0.5-0.2-0.9-0.5-1.8-0.5l-4.5-0.7c-2-0.2-3.4-1.1-4.3-2.5 c-0.9-1.4-1.1-3.2-1.1-5.7c0-2.3,0.5-4.1,1.1-5.5c0.7-1.1,1.8-2,3.2-2.5s3.2-0.7,5.2-0.7c2.5,0,5.2,0.2,8,0.9v5 c-2.5-0.2-4.5-0.5-6.6-0.5s-3.4,0.2-3.9,0.5c-0.5,0.2-0.5,0.5-0.7,0.9c-0.2,0.5-0.2,0.9-0.2,1.6s0,1.4,0.2,1.6 c0.2,0.2,0.2,0.5,0.5,0.7c0.2,0.2,0.7,0.2,1.6,0.5l4.8,0.7c1.1,0.2,2,0.5,2.7,0.9c0.7,0.5,1.4,1.1,1.8,2c0.5,1.1,0.9,3,0.9,5.2 c0,2.7-0.5,4.5-1.1,5.9c-0.7,1.4-1.8,2.3-3,2.7s-3,0.7-5,0.7C322.4,45.9,319.5,45.5,317.2,45.3z"></path> <path id="XMLID_296_" d="M343.6,45.5V23H337v-5.5h19.5V23H350v22.5H343.6z"></path> <path id="XMLID_293_" d="M373.6,45.5l-1.4-5.7h-8.4l-1.4,5.7H356l7.5-28.2h8.9l7.5,28.2H373.6z M367.9,23.2L367.9,23.2l-3,11.4 h5.7L367.9,23.2z"></path> <path id="XMLID_291_" d="M395.9,45.7c-1.1,0.2-2.3,0.2-3.4,0.2c-3,0-5.2-0.5-6.8-1.4c-1.6-0.9-2.5-2.3-3-4.3s-0.7-5-0.7-8.9 s0.2-6.8,0.7-8.9c0.5-2,1.4-3.4,3-4.3c1.4-0.9,3.6-1.4,6.8-1.4c1.1,0,2,0,3.2,0.2c1.1,0.2,2,0.5,2.7,0.5v5 c-2.3-0.2-3.9-0.5-4.5-0.5c-1.8,0-3.2,0.2-3.9,0.5c-0.7,0.5-1.1,1.1-1.4,2.3s-0.2,3.2-0.2,6.4s0,5.2,0.2,6.4 c0.2,1.1,0.7,1.8,1.4,2.3c0.7,0.5,2,0.5,3.9,0.5c1.6,0,3.2-0.2,4.8-0.5v5C397.9,45.3,397,45.5,395.9,45.7z"></path> <path id="XMLID_289_" d="M417,45.5l-6.4-11.6h-1.8v11.6h-6.4V17.3h6.4v11.1h1.8l6.4-11.1h6.8l-8.2,13.4l8.2,14.5L417,45.5 L417,45.5z"></path> </g> </g> <g> <path d="M430,22.7c-0.6,0.6-1.4,0.9-2.2,0.9c-0.9,0-1.6-0.3-2.3-0.9c-0.6-0.6-0.9-1.4-0.9-2.3s0.3-1.7,1-2.3 c0.6-0.6,1.4-0.9,2.2-0.9c0.9,0,1.6,0.3,2.2,0.9s0.9,1.4,0.9,2.2C431,21.3,430.7,22.1,430,22.7z M425.9,18.6 c-0.5,0.5-0.8,1.1-0.8,1.8c0,0.7,0.3,1.4,0.8,1.9s1.1,0.8,1.9,0.8c0.7,0,1.3-0.3,1.9-0.8c0.5-0.5,0.8-1.1,0.8-1.9 c0-0.7-0.3-1.3-0.8-1.8s-1.1-0.8-1.9-0.8C427.1,17.8,426.4,18.1,425.9,18.6z M426.4,22.2v-3.5c0.2,0,0.5,0,1,0c0.4,0,0.7,0,0.7,0 c0.3,0,0.5,0.1,0.7,0.2c0.3,0.2,0.5,0.5,0.5,0.8s-0.1,0.5-0.2,0.6c-0.2,0.1-0.4,0.2-0.6,0.2c0.2,0,0.4,0.1,0.5,0.2 c0.2,0.2,0.3,0.4,0.3,0.8v0.3v0.1V22v0.1h-0.9c0-0.1,0-0.3-0.1-0.5s0-0.4-0.1-0.4c0-0.1-0.1-0.2-0.3-0.3c-0.1,0-0.2,0-0.3-0.1 h-0.2h-0.2V22h-0.8V22.2z M428.1,19.4c-0.1,0-0.3-0.1-0.5-0.1h-0.2v1h0.4c0.2,0,0.4,0,0.5-0.1s0.2-0.2,0.2-0.4 C428.4,19.6,428.3,19.5,428.1,19.4z"></path> </g> </g> </g> </svg> 