<svg xmlns="http://www.w3.org/2000/svg" xmlns:xlink="http://www.w3.org/1999/xlink" id="Capa_1" x="0px" y="0px" viewBox="0 0 300 300" style="enable-background:new 0 0 300 300;" xml:space="preserve"> <style type="text/css"> .st0{fill:#C9D1D9;} .st1{fill:#FFAA19;} .st2{fill:#159794;} .st3{fill:#00A4DE;} .st4{fill:#90CF03;} .st5{fill:#85096A;} </style> <circle class="st0" cx="149" cy="160" r="51.3"></circle> <path class="st1" d="M25.3,177.7c-1.9-0.8-3.7-1.7-5.4-2.7c2.2,19,8.5,36.7,17.9,52.3c0.9-1.6,1.9-3.2,3-4.7 C33,209,27.6,193.8,25.3,177.7z"></path> <path class="st2" d="M243.8,78.7c2-0.3,4-0.5,6-0.6c-13.1-16.1-29.9-28.9-49.2-37.3c0.2,1.9,0.4,3.7,0.4,5.6 C217.5,54,232.1,65,243.8,78.7z"></path> <path class="st3" d="M272.7,177.7c-2.2,15.3-7.1,29.6-14.3,42.6c1.2,1.4,2.2,2.9,3.2,4.5c8.6-15,14.4-31.8,16.5-49.8 C276.4,176,274.6,176.9,272.7,177.7z"></path> <path class="st4" d="M97,46.4c0-1.9,0.2-3.8,0.4-5.6C78.1,49.1,61.3,62,48.2,78.1c2,0.1,4,0.3,6,0.6C65.9,65,80.5,54,97,46.4z"></path> <path class="st5" d="M149,285c-8,0-15.8-0.8-23.4-2.2c-1.1,1.5-2.2,3-3.5,4.4c8.7,1.8,17.6,2.8,26.8,2.8c10.1,0,19.9-1.2,29.4-3.3 c-1.2-1.4-2.3-2.9-3.4-4.4C166.6,284,157.9,285,149,285z"></path> <circle class="st2" cx="149" cy="47" r="47"></circle> <circle class="st1" cx="83" cy="253" r="47"></circle> <circle class="st5" cx="218" cy="253" r="47"></circle> <circle class="st4" cx="46" cy="130" r="47"></circle> <circle class="st3" cx="252" cy="130" r="47"></circle> </svg>