<?xml version="1.0" encoding="utf-8"?>
<!-- Generator: Adobe Illustrator 19.2.0, SVG Export Plug-In . SVG Version: 6.00 Build 0)  -->
<svg version="1.1" id="Capa_1" xmlns="http://www.w3.org/2000/svg" xmlns:xlink="http://www.w3.org/1999/xlink" x="0px" y="0px"
	 viewBox="0 0 200 200" style="enable-background:new 0 0 200 200;" xml:space="preserve">
<style type="text/css">
	.st0{fill:none;}
	.st1{fill:#3CBFBD;}
	.st2{fill:#7759A6;}
	.st3{fill:#0172B1;}
</style>
<polygon class="st0" points="115.7,110.3 88.6,97.6 61.5,110.7 88.6,123 "/>
<path class="st0" d="M34.4,147.1c0,0.7-0.3,1.3-0.8,1.8c-0.5,0.5-1.2,0.7-1.9,0.7c-0.1,0-11.1-0.5-18.3,6.4c-3.8,3.7-6,8.8-6.3,15.4
	l0,3.8c0.5,6.1,3.8,11,9.7,14.6c4.5,2.7,9,3.7,9.9,3.9h149.6V85c-5,9.1-10,18.3-15.1,27.4c-0.7,1.2-1.7,2.4-2.8,3.2
	c-6.2,4.6-12.4,9-18.6,13.5c-0.5,0.4-1.1,0.7-2,1.3c0.5-9.2,1-18,1.6-26.7c0-0.8,0.4-1.5,0.8-2.2c5.9-10.7,11.8-21.5,17.6-32.2H34.4
	V147.1z M53.1,110.8c0-0.2,0-0.4,0.1-0.6c0-0.1,0-0.1,0-0.2c0.1-0.2,0.1-0.3,0.2-0.5c0,0,0-0.1,0.1-0.1c0.1-0.2,0.2-0.3,0.4-0.5
	c0,0,0.1-0.1,0.1-0.1c0.1-0.1,0.3-0.2,0.4-0.3c0,0,0,0,0.1-0.1l33-16c0.7-0.3,1.5-0.3,2.2,0l33,15.5c0,0,0,0,0.1,0
	c0.2,0.1,0.3,0.2,0.5,0.3c0,0,0.1,0.1,0.1,0.1c0.2,0.1,0.3,0.3,0.4,0.5c0,0,0,0.1,0,0.1c0.1,0.2,0.2,0.3,0.2,0.5c0,0.1,0,0.1,0,0.2
	c0.1,0.2,0.1,0.4,0.1,0.6v39.5c0,0.9-0.5,1.7-1.2,2.2l-33,19.5c0,0-0.1,0-0.1,0c-0.1,0.1-0.3,0.1-0.4,0.2c-0.1,0-0.1,0-0.2,0
	c-0.2,0-0.4,0.1-0.6,0.1c-0.2,0-0.4,0-0.6-0.1c-0.1,0-0.1,0-0.2,0c-0.1,0-0.3-0.1-0.4-0.2c0,0-0.1,0-0.1,0l-33-19
	c-0.8-0.4-1.3-1.3-1.3-2.2V110.8z"/>
<path class="st0" d="M29.4,144.7v-104c-3.7,0.2-11.1,1.4-16.4,6.4c-4,3.8-6,9.2-6,16.1l0.1,92.6c0.9-1.2,1.8-2.3,2.9-3.4
	C16.6,146.2,25.2,144.9,29.4,144.7z"/>
<path class="st0" d="M154.3,111.1c-2.9-1.6-5.7-3.1-8.6-4.7c-1.6-0.9-2.1-0.1-2.2,1.4c-0.3,2.9-0.6,5.8-0.8,8.7c0,0,0,0,0,0
	c-0.1,1.2-0.2,2.3-0.2,3.5c0,0.5,0.2,1.3,0.6,1.5c0.4,0.2,1.1,0,1.5-0.3c3.3-2.5,6.6-5,9.9-7.5C155.6,112.6,155.6,111.8,154.3,111.1
	z"/>
<polygon class="st0" points="58.1,114.7 58.1,148.9 86.1,165 86.1,127.4 "/>
<polygon class="st0" points="119.1,148.4 119.1,114.2 91.1,127.4 91.1,164.9 "/>
<polygon points="34.4,35.6 32.2,35.6 34.4,35.7 "/>
<path d="M29.4,35.6L29.4,35.6c0.2,0,0.3,0,0.5,0H29.4z"/>
<path d="M31.7,40.6c0,0-0.9,0-2.3,0.1v104c-4.3,0.2-12.9,1.5-19.3,7.7c-1.1,1-2.1,2.2-2.9,3.4l0,15.7c0.4-6.5,2.5-11.7,6.3-15.4
	c7.2-6.8,18.2-6.4,18.3-6.4c0.7,0,1.4-0.2,1.9-0.7c0.5-0.5,0.8-1.1,0.8-1.8V69.3H158c0.9-1.7,1.8-3.3,2.7-5H34.4V36.5l-0.2,4.2
	L31.7,40.6z"/>
<path d="M176.4,193.6H26.8c-1-0.2-5.4-1.2-9.9-3.9c-5.9-3.6-9.2-8.4-9.7-14.6l0,0.8l-4.9,0c1.5,14.9,16.1,21.3,24,22.6
	c0.1,0,0.3,0,0.4,0h152.3c1.4,0,2.5-1.1,2.5-2.5V75.8c-1.7,3-3.3,6.1-5,9.1V193.6z"/>
<path d="M2.1,173.5c0,0.7,0,1.3,0.1,1.9l0-4.4C2.1,171.8,2.1,172.6,2.1,173.5z"/>
<path d="M7.2,175.2l0-3.8l0-15.7L7,63.2c0-6.9,2-12.3,6-16.1c5.2-5,12.6-6.1,16.4-6.4c1.4-0.1,2.3-0.1,2.3-0.1l2.5,0.1l0.2-4.2
	l0-0.8l0,0l-2.2-0.1l-0.3,0c-0.1,0-0.9,0-2.1,0c-0.2,0-0.3,0-0.5,0c-4.3,0.2-13.2,1.5-19.8,7.7c-5,4.8-7.6,11.4-7.6,19.8L2.2,171
	l0,4.4l0,0.6l0.1,0l4.9,0L7.2,175.2z"/>
<path d="M53.2,110.2c0-0.1,0-0.1,0-0.2C53.2,110.1,53.2,110.1,53.2,110.2z"/>
<path d="M123.2,108.4c0,0,0.1,0.1,0.1,0.1C123.3,108.4,123.2,108.4,123.2,108.4z"/>
<path d="M123.7,108.9C123.7,109,123.7,109,123.7,108.9C123.7,109,123.7,109,123.7,108.9z"/>
<path d="M124,109.5c0,0.1,0,0.1,0,0.2C124,109.6,124,109.6,124,109.5z"/>
<path d="M53.9,109c0,0,0.1-0.1,0.1-0.1C54,108.9,53.9,109,53.9,109z"/>
<path d="M53.4,109.6c0,0,0-0.1,0.1-0.1C53.5,109.5,53.5,109.5,53.4,109.6z"/>
<path d="M89.3,171.7c-0.1,0-0.1,0-0.2,0C89.2,171.7,89.3,171.7,89.3,171.7z"/>
<path d="M88,171.7c-0.1,0-0.1,0-0.2,0C87.9,171.7,88,171.7,88,171.7z"/>
<path d="M124,109.7c0-0.1,0-0.1,0-0.2c-0.1-0.2-0.1-0.3-0.2-0.5c0,0,0-0.1,0-0.1c-0.1-0.2-0.2-0.3-0.4-0.5c0,0-0.1-0.1-0.1-0.1
	c-0.1-0.1-0.3-0.2-0.5-0.3c0,0,0,0-0.1,0l-33-15.5c-0.7-0.3-1.5-0.3-2.2,0l-33,16c0,0,0,0-0.1,0.1c-0.2,0.1-0.3,0.2-0.4,0.3
	c0,0-0.1,0.1-0.1,0.1c-0.1,0.1-0.3,0.3-0.4,0.5c0,0,0,0.1-0.1,0.1c-0.1,0.1-0.2,0.3-0.2,0.5c0,0.1,0,0.1,0,0.2
	c0,0.2-0.1,0.4-0.1,0.6v39.5c0,0.9,0.5,1.7,1.3,2.2l33,19c0,0,0.1,0,0.1,0c0.1,0.1,0.3,0.1,0.4,0.2c0.1,0,0.1,0,0.2,0
	c0.2,0,0.4,0.1,0.6,0.1c0.2,0,0.4,0,0.6-0.1c0.1,0,0.1,0,0.2,0c0.2,0,0.3-0.1,0.4-0.2c0,0,0.1,0,0.1,0l33-19.5
	c0.8-0.5,1.2-1.3,1.2-2.2v-39.5C124.1,110.1,124.1,109.9,124,109.7z M86.1,165l-28-16.1v-34.2l28,12.7V165z M88.6,123l-27.1-12.3
	l27.1-13.2l27.1,12.7L88.6,123z M119.1,148.4l-28,16.5v-37.5l28-13.2V148.4z"/>
<path d="M170.3,46.9c-3.2,5.8-6.3,11.6-9.5,17.4c-0.9,1.7-1.8,3.3-2.7,5c-5.9,10.7-11.8,21.5-17.6,32.2c-0.4,0.7-0.8,1.5-0.8,2.2
	c-0.6,8.7-1.1,17.5-1.6,26.7c0.9-0.6,1.5-0.9,2-1.3c6.2-4.5,12.5-9,18.6-13.5c1.1-0.8,2.1-2,2.8-3.2c5-9.1,10.1-18.3,15.1-27.4
	c1.7-3,3.3-6.1,5-9.1c2.5-4.6,5-9.2,7.6-13.8c0.9-1.6,1.7-3.3,2.7-5.1c-7-3.8-13.8-7.5-20.6-11.3C170.7,46.2,170.5,46.6,170.3,46.9z
	 M154.4,113.5c-3.3,2.5-6.6,5-9.9,7.5c-0.4,0.3-1.2,0.5-1.5,0.3c-0.4-0.2-0.6-0.9-0.6-1.5c0-1.2,0.1-2.3,0.2-3.5c0,0,0,0,0,0
	c0.3-2.9,0.6-5.8,0.8-8.7c0.1-1.5,0.6-2.2,2.2-1.4c2.8,1.6,5.7,3.1,8.6,4.7C155.6,111.8,155.6,112.6,154.4,113.5z"/>
<path d="M196.5,38.4c-4.1-2.3-8.2-4.6-12.4-6.8c-2.4-1.2-4.9-0.6-6.3,1.6c-1.4,2.2-2.5,4.5-3.9,7c7,3.8,13.8,7.5,20.7,11.3
	c0.6-0.9,1-1.7,1.4-2.4c0.8-1.5,1.7-3,2.5-4.6C199.6,42.2,198.8,39.7,196.5,38.4z"/>
<polygon class="st1" points="119.1,148.4 91.1,164.9 91.1,127.4 119.1,114.2 "/>
<polygon class="st2" points="88.6,123 61.5,110.7 88.6,97.6 115.7,110.3 "/>
<polygon class="st3" points="86.1,165 58.1,148.9 58.1,114.7 86.1,127.4 "/>
</svg>
