<?xml version="1.0" encoding="utf-8"?>
<!-- Generator: Adobe Illustrator 19.2.0, SVG Export Plug-In . SVG Version: 6.00 Build 0)  -->
<svg version="1.1" id="Capa_1" xmlns="http://www.w3.org/2000/svg" xmlns:xlink="http://www.w3.org/1999/xlink" x="0px" y="0px"
	 viewBox="0 0 300 300" style="enable-background:new 0 0 300 300;" xml:space="preserve">
<style type="text/css">
	.st0{fill:#6593CB;}
</style>
<g>
	<path class="st0" d="M237.7,189.1l0.2,7.9h-22.1c-7.9,10-17.9,17-29.3,23h51.4l0.2,8.1l18.7-19.5L237.7,189.1z"/>
	<path class="st0" d="M228.2,141.2c0-40.1-30.1-73.1-68.9-77.8l-0.1-9.4l-19.4,19.3l19.5,19.1l-0.1-7.6c27,4.5,47.7,27.7,47.7,56
		c0,28.5-20.9,53.1-48.2,56.1H61.2l11.3,11.5L61.2,220H158l0,0C198,215.9,228.2,181.8,228.2,141.2z"/>
	<path class="st0" d="M121.1,191c-16.9-11-28.3-28.5-28.3-49.5c0-28.3,20.6-51.9,47.6-56.4L128,73.4l10.3-9.7
		c-37.8,5.6-66.9,38.4-66.9,77.8c0,18.7,6.5,35.5,17.5,49.5H121.1z"/>
</g>
</svg>
