<svg version="1.1" id="Capa_1" xmlns="http://www.w3.org/2000/svg" x="0" y="0" viewBox="0 0 464.8 384.4" xml:space="preserve"><style>.st0{fill:#3cbfbd}.st1{fill:#fff}.st2{fill:#7759a6}</style><path d="M322.8 216c0-7.8-6.3-14.1-14.1-14.1H226V168c0-1.4-1.1-2.5-2.5-2.5s-2.5 1.1-2.5 2.5v33.8h-73.7c-7.8 0-14.1 6.3-14.1 14.1v39.2c0 1.4 1.1 2.5 2.5 2.5s2.5-1.1 2.5-2.5v-39.2c0-5 4.1-9.1 9.1-9.1H221v49.4c0 1.4 1.1 2.5 2.5 2.5s2.5-1.1 2.5-2.5V207h82.7c5 0 9.1 4.1 9.1 9.1v39.1c0 1.4 1.1 2.5 2.5 2.5s2.5-1.1 2.5-2.5V216z"/><path class="st0" d="M318.1 140.9c0 19.1-15.4 34.5-34.5 34.5h-99.2c-21.4 0-38.8-17.4-38.8-38.8 0-16.9 10.8-31.3 25.9-36.6 0-.7-.1-1.5-.1-2.2 0-23.8 19.3-43.1 43.1-43.1 16 0 29.9 8.7 37.4 21.6 4.1-2.7 9.1-4.4 14.4-4.4 14.3 0 25.9 11.6 25.9 25.9 0 3.3-.6 6.4-1.7 9.3 15.7 3.2 27.6 17.2 27.6 33.8z"/><path d="M283.6 177.9h-99.2c-22.8 0-41.3-18.5-41.3-41.3 0-16.9 10.3-32.1 25.9-38.3v-.5c0-25.2 20.5-45.6 45.6-45.6 15.4 0 29.8 7.9 38.2 20.7 4.1-2.3 8.8-3.4 13.5-3.4 15.6 0 28.4 12.7 28.4 28.4 0 2.6-.3 5.1-1 7.5 15.7 4.4 26.9 19 26.9 35.6 0 20.3-16.6 36.9-37 36.9zm-69-120.7c-22.4 0-40.6 18.2-40.6 40.6 0 .7 0 1.4.1 2.1l.1 1.8-1.7.6c-14.5 5.1-24.3 18.9-24.3 34.3 0 20 16.3 36.3 36.3 36.3h99.2c17.6 0 32-14.4 32-32 0-15.2-10.8-28.3-25.6-31.3l-2.9-.6 1.1-2.8c1-2.7 1.6-5.5 1.6-8.4 0-12.9-10.5-23.4-23.4-23.4-4.6 0-9.1 1.4-13 3.9l-2.2 1.5-1.3-2.3c-7.5-12.5-21-20.3-35.4-20.3zM166.5 310.2v5.7c0 3.6-3 6.6-6.6 6.6h-48.4c-3.6 0-6.6-3-6.6-6.6v-5.7c0-10.2 8.3-18.5 18.5-18.5 4 0 5.8 2.2 12.3 2.2s8.4-2.2 12.3-2.2c10.2 0 18.5 8.3 18.5 18.5zm-4.4 0c0-7.8-6.3-14.1-14.1-14.1-2.7 0-5.4 2.2-12.3 2.2s-9.6-2.2-12.3-2.2c-7.8 0-14.1 6.3-14.1 14.1v5.7c0 1.2 1 2.2 2.2 2.2h48.4c1.2 0 2.2-1 2.2-2.2v-5.7zm-44-40.5c0-9.7 7.9-17.6 17.6-17.6s17.6 7.9 17.6 17.6-7.9 17.6-17.6 17.6-17.6-7.9-17.6-17.6zm4.4 0c0 7.3 5.9 13.2 13.2 13.2s13.2-5.9 13.2-13.2-5.9-13.2-13.2-13.2-13.2 5.9-13.2 13.2z"/><path class="st0" d="M162.1 310.2c0-7.8-6.3-14.1-14.1-14.1-2.7 0-5.4 2.2-12.3 2.2s-9.6-2.2-12.3-2.2c-7.8 0-14.1 6.3-14.1 14.1v5.7c0 1.2 1 2.2 2.2 2.2h48.4c1.2 0 2.2-1 2.2-2.2v-5.7zM122.5 269.7c0 7.3 5.9 13.2 13.2 13.2s13.2-5.9 13.2-13.2-5.9-13.2-13.2-13.2-13.2 5.9-13.2 13.2z"/><g><path class="st1" d="M245.5 318.3v-41.8h-14.3c-1.8 0-3.3-1.5-3.3-3.3v-14.3h-24.2c-1.2 0-2.2 1-2.2 2.2v57.2c0 1.2 1 2.2 2.2 2.2h39.6c1.2 0 2.2-1 2.2-2.2z"/><path class="st1" d="M233.2 259.6c-.3-.3-.6-.5-1-.6v14.5h13.3c-.1-.4-.3-.8-.6-1.1l-11.7-12.8z"/><path d="M249.9 272.6v45.7c0 3.6-3 6.6-6.6 6.6h-39.6c-3.6 0-6.6-3-6.6-6.6v-57.2c0-3.6 3-6.6 6.6-6.6h28.1c1.7 0 3.4.7 4.7 1.9l11.5 11.5c1.2 1.3 1.9 2.9 1.9 4.7zm-4.4 45.7v-41.8h-14.3c-1.8 0-3.3-1.5-3.3-3.3v-14.3h-24.2c-1.2 0-2.2 1-2.2 2.2v57.2c0 1.2 1 2.2 2.2 2.2h39.6c1.2 0 2.2-1 2.2-2.2zm-8.8-30.3c0 .9-.7 1.7-1.6 1.7H212c-.9 0-1.7-.7-1.7-1.7v-1.1c0-.9.7-1.7 1.7-1.7h23c.9 0 1.6.7 1.6 1.7l.1 1.1zm0 8.8c0 .9-.7 1.7-1.6 1.7H212c-.9 0-1.7-.7-1.7-1.7v-1.1c0-.9.7-1.7 1.7-1.7h23c.9 0 1.6.7 1.6 1.7l.1 1.1zm0 8.8c0 .9-.7 1.7-1.6 1.7H212c-.9 0-1.7-.7-1.7-1.7v-1.1c0-.9.7-1.7 1.7-1.7h23c.9 0 1.6.7 1.6 1.7l.1 1.1zm-3.5-46c-.3-.3-.6-.5-1-.6v14.5h13.3c-.1-.4-.3-.8-.6-1.1l-11.7-12.8z"/></g><g><path d="M359.9 259.7v39.6c0 3.6-3 6.6-6.6 6.6h-26.4l3.3 13.2h9.9c1.2 0 2.2 1 2.2 2.2s-1 2.2-2.2 2.2h-39.6c-1.2 0-2.2-1-2.2-2.2s1-2.2 2.2-2.2h9.9l3.3-13.2h-26.4c-3.6 0-6.6-3-6.6-6.6v-39.6c0-3.6 3-6.6 6.6-6.6h66c3.6 0 6.6 3 6.6 6.6zm-4.4 0c0-1.2-1-2.2-2.2-2.2h-66c-1.2 0-2.2 1-2.2 2.2v39.6c0 1.2 1 2.2 2.2 2.2h66c1.2 0 2.2-1 2.2-2.2v-39.6zm-29.9 59.4l-2.2-8.8h-6.3l-2.2 8.8h10.7z"/><path class="st2" d="M355.5 259.7c0-1.2-1-2.2-2.2-2.2h-66c-1.2 0-2.2 1-2.2 2.2v39.6c0 1.2 1 2.2 2.2 2.2h66c1.2 0 2.2-1 2.2-2.2v-39.6zM325.6 319.1l-2.2-8.8h-6.3l-2.2 8.8z"/></g></svg>