<svg xmlns="http://www.w3.org/2000/svg" xmlns:xlink="http://www.w3.org/1999/xlink" id="Capa_1" x="0px" y="0px" viewBox="0 0 300 300" style="enable-background:new 0 0 300 300;" xml:space="preserve"> <style type="text/css"> .st0{fill:#40586F;} .st1{fill:#219AB5;} </style> <g> <path class="st0" d="M172.1,284.1l9.2,0.1c-2.2,1.3-6.2,0.8-9.2,0.8V284.1L172.1,284.1z M169.5,283.3c0.8-0.8,2.7,1.1,1,0.5 C170.5,283.8,168.4,284.4,169.5,283.3z M146.9,277.4c0.1-0.1,0.3,0.1,0.3,0.3c0,0.1,0.1,0.1,0.1,0.1 C147.2,277.7,145.7,278.5,146.9,277.4z M144.4,276.6c0.1-0.1,0.3,0.1,0.3,0.3c0,0.1,0.1,0.1,0.1,0.1 C144.7,276.9,143.2,277.7,144.4,276.6z M141.8,275.8c0.8-0.8,2.7,1.1,1,0.5C142.8,276.2,140.7,276.9,141.8,275.8z M167.9,274.9 c0.1-0.1,0.3,0.1,0.3,0.3c0,0.1,0.1,0.1,0.1,0.1C168.2,275.3,166.8,276.1,167.9,274.9z M139.3,274.9l1.7,0.4L139.3,274.9z M163.6,274.7l-2.4,0.3C161.6,274.7,160.8,273.2,163.6,274.7z M157.8,273.3c0.8-0.8,2.6,1.1,1,0.5 C158.8,273.7,156.7,274.4,157.8,273.3z M206.5,272.4c0.8-0.8,2.6,1.1,1,0.5C207.5,272.9,205.4,273.6,206.5,272.4z M153.6,272.4 c0.8-0.8,2.6,1.1,1,0.5C154.6,272.9,152.5,273.6,153.6,272.4z M209.9,271.6c0.1-0.1,0.3,0.1,0.3,0.3c0,0.1,0.1,0.1,0.1,0.1 C210.2,271.9,208.7,272.7,209.9,271.6z M213.2,270.8c0.1-0.1,0.3,0.1,0.3,0.3c0,0.1,0.1,0.1,0.1,0.1 C213.6,271.1,212.1,271.9,213.2,270.8z M147.7,270.8c0.8-0.8,2.7,1.1,1,0.5C148.7,271.2,146.6,271.9,147.7,270.8z M208.2,270.8 c1.5-1,0.5-1.6,3.3-0.2L208.2,270.8z M212.4,269.1c0.1-0.1,0.3,0.1,0.3,0.3c0,0.1,0.1,0.1,0.1,0.1 C212.7,269.4,211.2,270.2,212.4,269.1z M143.5,269.1c0.1-0.1,0.3,0.1,0.3,0.3c0,0.1,0.1,0.1,0.1,0.1 C143.9,269.4,142.4,270.2,143.5,269.1z M204,269.1c1.5-1,0.5-1.6,3.3-0.2L204,269.1z M141,268.3l1.7,0.4L141,268.3z M208.2,267.4 c0.1-0.1,0.3,0.1,0.3,0.3c0,0.1,0.1,0.1,0.1,0.1C208.5,267.8,207.1,268.6,208.2,267.4z M166.1,267.7l-2.4,0.7 C164.9,267.4,162.1,267.5,166.1,267.7z M141,268.3l-1.7-0.8L141,268.3z M160.3,266.6c0.1-0.1,0.3,0.1,0.3,0.3 c0,0.1,0.1,0.1,0.1,0.1C160.7,266.9,159.2,267.7,160.3,266.6z M139.4,267.4l-1.7-0.8L139.4,267.4z M157.8,265.8 c0.1-0.1,0.3,0.1,0.3,0.3c0,0.1,0.1,0.1,0.1,0.1C158.2,266.1,156.7,266.9,157.8,265.8z M154.5,264.9c0.1-0.1,0.3,0.1,0.3,0.3 c0,0.1,0.1,0.1,0.1,0.1C154.8,265.3,153.3,266.1,154.5,264.9z M219.1,261.6c0.1-0.1,0.3,0.1,0.3,0.3c0,0.1,0.1,0.1,0.1,0.1 C219.4,261.9,218,262.7,219.1,261.6z M220.8,260.7c0.1-0.1,0.3,0.1,0.3,0.3c0,0.1,0.1,0.1,0.1,0.1 C221.1,261.1,219.7,261.9,220.8,260.7z M222.5,259.9c0.1-0.1,0.3,0.1,0.3,0.3c0,0.1,0.1,0.1,0.1,0.1 C222.8,260.2,221.3,261,222.5,259.9z M225.8,259.1l-1.5,0.9L225.8,259.1z M227.5,258.2l-1.7,0.8L227.5,258.2z M227.5,258.2l0.2-0.8 l0.6,0.5L227.5,258.2L227.5,258.2z M230,256.6l-0.2,0.8l-0.6-0.5L230,256.6L230,256.6z M231.7,255.7l-1.7,0.8L231.7,255.7z M233.4,254.9l-1.7,0.8L233.4,254.9z M234.2,254.1l-0.8,0.8L234.2,254.1z M234.2,254.1c1.3-1.9,2.9-2.8,5-3.4 C237.6,253.3,237.2,253.3,234.2,254.1z M139.4,275.1c-10-0.9-32.7-18.3-37.8-26c2.4,0.7,14,11.6,17.8,14.1c3.3,2.2,6.3,4.1,9.8,6.2 C132.3,271.4,136.8,272.8,139.4,275.1L139.4,275.1z M239.3,250.7c1.6-2.4,0.9-1.9,3.4-2.5C241.1,250.6,241.8,250.1,239.3,250.7z M101.6,249l-0.8-0.8L101.6,249z M100.7,248.2l-0.8-0.8L100.7,248.2z M99.9,247.4l-0.8-0.8L99.9,247.4z M242.6,248.2l3.4-3.4 C245.5,247.5,245.1,247.6,242.6,248.2z M201.5,245.7l-0.2,0.8l-0.6-0.5L201.5,245.7L201.5,245.7z M99,246.5l-0.8-0.2l0.5-0.6 L99,246.5L99,246.5z M201.5,245.7l1.5-0.9L201.5,245.7z M246,244.9l0.2-0.8l0.6,0.5L246,244.9L246,244.9z M262,226.4 c0.1-0.1,0.3,0.1,0.3,0.3c0,0.1,0.1,0.1,0.1,0.1C262.3,226.7,260.8,227.5,262,226.4z M264.5,223.9l-0.2,0.8l-0.6-0.5L264.5,223.9 L264.5,223.9z M265.3,222.2l-0.8,1.7L265.3,222.2z M265.3,222.2l1.7-2.5L265.3,222.2z M267.8,218l-0.8,1.7L267.8,218z M81.4,218 c0.1-0.1,0.3,0.1,0.3,0.3c0,0.1,0.1,0.1,0.1,0.1C81.7,218.3,80.3,219.1,81.4,218z M268.7,216.3l-0.8,1.7L268.7,216.3z M269.5,214.6 l-0.8,1.7L269.5,214.6z M269.5,214.6l0.4-1.7L269.5,214.6z M271.2,210.4l-0.4,1.7L271.2,210.4z M271.2,210.4l0.4-1.7L271.2,210.4z M272,207.1c0.1-0.1,0.3,0.1,0.3,0.3c0,0.1,0.1,0.1,0.1,0.1C272.3,207.4,270.9,208.2,272,207.1z M272.9,205.4c0-1.9,1-0.2,0.5,0 C273.4,205.4,272.9,207.5,272.9,205.4z M273.7,202c0.1-0.1,0.3,0.1,0.3,0.3c0,0.1,0.1,0.1,0.1,0.1C274,202.3,272.5,203.1,273.7,202 z M275.4,197c0-1.9,1-0.2,0.5,0C275.9,197,275.4,199.1,275.4,197z M276.2,192.8c0.1-0.1,0.3,0.1,0.3,0.3c0,0.1,0.1,0.1,0.1,0.1 C276.5,193.1,275.1,193.9,276.2,192.8z M276.9,188.6c0.9,1.1,0.9-1.2,0.8,2.4L276.9,188.6z M278.1,187.7c-0.2-1.8,0.9-19.3,1.3-20 C279.9,172.9,280.5,183.6,278.1,187.7z M209,243.2l-2.5,0.8c-0.5,2.6-2.5,0-2.5,0c-4.3,0-6.1,1.2-10.1,1.7 c-3.5,0.4-8.3,0.6-11.6,1.1c-5.6,0.9-17.9,1-22-1.9c-8-0.7-20.6-9-25-9.1c0.8,4.5,4.7,8.6,7.3,12.2c-13.3,1.5-24.7-13.9-34.1-20.7 l1.3,3.9c-3.9-0.6-3.7-3.6-6.6-5.7l-1.4,0.9l-3.4-3.4c0.9,8.7,19.4,25.1,26.4,30.4c9.7,7.3,30.4,15.8,42.1,15.8 c2-2.6,2.2-0.1,5.1,0.8c0.3,0.1,1.6,0.2,2.2,0.3c11.3,2,21.2-1.1,29.6-1.1c-4.6,3.2-12.3,2.9-18.4,3.6c6.4,3,15.9-1.8,22.6-1.9 c-10.3,7.2-42,4-57.6-1.2c-3.5-1.2-13.9-5.9-16.2-6.2l3.3,3.1c-13.6-3.3-32.1-21.6-40.1-32.2c-4.8-6.3-10.2-15.1-13.3-22.8 c-3.1-7.7-7.9-20.4-7.9-28.9l-2.5-0.2c1.1,4.7,1.3,10.3,3.2,17.8c1.3,5.2,2.9,11.8,5.1,16.4c-2.9-0.7-5.2-8-6.4-11 c-0.9-2.3-1.5-4.1-2.3-6.2c-1.1-2.9-1.6-4.5-3.9-5.4c-2.5,4.5-0.4,11,1,15.1c11,32.4,36.3,61.8,68.4,72.7c14,4.7,19.7,5.6,34.8,5.6 c20.9,0,47-5.7,64.3-16.3c24.8-15.2,41.1-46.5,45.8-75.2c2-12.1,2-25,0-37.2c-6.9-42-35.8-72.5-75.8-85.5c-9.1-3-24.7-6.4-34.1-5.9 c-2.3-3-4.1-7.7-7.1-11.7c-6.1-8.2-21.7-23.7-30.9-24.5c1.6,2.2,7.7,5.1,10.3,7.4c6.5,5.6,23.6,22.3,24.8,28.6 c-6,0.5-15.3-0.7-19.9,1.6c6.7,0.7,13-1.3,20.7-0.4c2.6,2.3,1.5,2.4,3.4,3.9l-0.7-3.9c2.6,0.4,5,0.4,7.5,0.8 c2.6,0.4,4.7,1.4,7.6,1.7c-0.5,2.8-1.6,1.7,7.7,5.2c-4.5,0.7-14.9-1.9-20.2-2.1c-2.5-0.1-16.7,0.3-17.4,4.9 c4.9,3.5,29.7,1.2,39.2,5.9c-3.8,0.4-7-0.5-10.9-0.6c-3.9-0.2-6.3-1-10.9-0.9c-3.8,0.1-17.2,1.5-19.2,4c7.7,0.9,11.3-0.5,24.4,1 c8.1,0.9,12.8,0.1,20.9,4.3c3.7,1.9,4.8,1.1,7.6,2.5c2.1,1,11.7,6.7,13,8c14.8,14.8,22.2,20.1,30.3,41.1c1.3,3.3,3.1,4.9,3.7,7.2 l1,17.8c-0.9,5.9-0.1,12.4-1.5,18.7c-1.8,8.2-6.6,21.4-12.4,27.9c0.2,2.5-0.1-0.7,1,2.7c-4.8,1.9-11.5,10.2-16.4,13.8 c-3.7,2.8-4.5,4.8-8.7,6.4c-3.2,1.2-8.6,4-11.7,4.3L209,243.2z"></path> <path class="st1" d="M83.9,179.9c0.8-0.8,2.6,1.1,1,0.5C84.9,180.4,82.8,181,83.9,179.9z M78.9,179.1l2.5,0.1 C78.6,180.7,79.8,179.7,78.9,179.1z M78.9,179.1l-2.5-0.1C79.2,177.5,77.9,178.5,78.9,179.1z M74.7,177.4c0.1-0.1,0.3,0.1,0.3,0.3 c0,0.1,0.1,0.1,0.1,0.1C75,177.7,73.5,178.5,74.7,177.4z M55.4,167.3l0.8,0.2l-0.5,0.6L55.4,167.3L55.4,167.3z M55.4,167.3 l-0.8-0.2l0.5-0.6L55.4,167.3L55.4,167.3z M52,164.8l0.8,0.2l-0.5,0.6L52,164.8L52,164.8z M52,164.8l-0.8-0.8L52,164.8z M51.2,164 l-0.8-0.2l0.5-0.6L51.2,164L51.2,164z M34.4,143.8l0.8,0.2l-0.5,0.6L34.4,143.8L34.4,143.8z M34.4,143.8l-0.8-0.2l0.5-0.6 L34.4,143.8L34.4,143.8z M32.7,141.3l0.8,0.2l-0.5,0.6L32.7,141.3L32.7,141.3z M32.7,141.3l-0.9-1.5L32.7,141.3z M31,137.9 c0.1-0.1,0.3,0.1,0.3,0.3c0,0.1,0.1,0.1,0.1,0.1C31.3,138.3,29.9,139.1,31,137.9z M30.2,136.3c0.1-0.1,0.3,0.1,0.3,0.3 c0,0.1,0.1,0.1,0.1,0.1C30.5,136.6,29,137.4,30.2,136.3z M29.3,134.6c0-1.9,1-0.2,0.5,0C29.9,134.6,29.3,136.8,29.3,134.6z M28.5,132.1c0.1-0.1,0.3,0.1,0.3,0.3c0,0.1,0.1,0.1,0.1,0.1C28.8,132.4,27.4,133.2,28.5,132.1z M171.3,130.4l-0.2,0.8l-0.6-0.5 L171.3,130.4L171.3,130.4z M164.5,129.5l-0.4,1.7L164.5,129.5z M27.7,129.5c0.1-0.1,0.3,0.1,0.3,0.3c0,0.1,0.1,0.1,0.1,0.1 C28,129.9,26.5,130.7,27.7,129.5z M165.4,127.9l-0.8,1.7L165.4,127.9z M42,113.6l-0.1,2.5C40.3,113.3,41.3,114.6,42,113.6z M20.7,98.5l0.2,13.3C19.5,109.2,19.5,101.1,20.7,98.5z M40.3,110.2c0.1-0.1,0.3,0.1,0.3,0.3c0,0.1,0.1,0.1,0.1,0.1 C40.6,110.5,39.1,111.3,40.3,110.2z M14.2,85.9c0-1.9,1-0.2,0.5,0C14.8,85.9,14.2,88,14.2,85.9z M15.1,82.5 c0.1-0.1,0.3,0.1,0.3,0.3c0,0.1,0.1,0.1,0.1,0.1C15.4,82.8,13.9,83.6,15.1,82.5L15.1,82.5z M47.8,79.1l-0.2,0.8L47,79.4L47.8,79.1 L47.8,79.1z M33.5,59.8l-0.2,0.8l-0.6-0.5L33.5,59.8L33.5,59.8z M33.5,59.8l0.2-0.8l0.6,0.5L33.5,59.8L33.5,59.8z M26.8,59 c0.1-0.1,0.3,0.1,0.3,0.3c0,0.1,0.1,0.1,0.1,0.1C27.1,59.3,25.7,60.1,26.8,59L26.8,59z M29.3,56.4l-0.2,0.8l-0.6-0.5L29.3,56.4 L29.3,56.4z M30.2,55.6l-0.8,0.8L30.2,55.6z M31,53.9l-0.8,1.7L31,53.9z M31.8,53.1L31,53.9L31.8,53.1z M32.7,52.3l-0.8,0.8 L32.7,52.3z M32.7,52.3c0.7-2.5,0.1-1.8,2.5-3.4C34.5,51.4,35.1,50.7,32.7,52.3z M36.9,47.2l-0.1,1.5l-1.6,0.2L36.9,47.2L36.9,47.2 z M38.5,45.5l-0.1,1.5l-1.6,0.2L38.5,45.5L38.5,45.5z M38.5,45.5c1.6-2.4,3.9-5.1,6.7-5.9C43.6,42.1,41.3,44.8,38.5,45.5z M45.2,39.7c1.7-2.5,3.9-4.3,6.7-5.1C50.6,36.6,47.5,39.1,45.2,39.7z M52,34.6l0.2-0.8l0.6,0.5L52,34.6L52,34.6z M73.8,182.5 l2.5,0.2c4,3.6,28.2,4.5,33.6,1.9h0.8c12.5,1.5,40.4-15.6,50-28.5c12.1-16.3,22.2-35.2,22.2-56.8c-1,1.6-2.2,10.9-2.9,14 c-1.4,5.8-1.7,7.6-4.4,13.2l-2.2,0.1l-2.2,3.8c0.4-4.1,2.7-8.6,3.6-13.2c1-5.2,2.3-9.5-0.2-14.5c-4.6,3.3-5,20.4-9.2,25.2 c0.2-7.5,6.2-19.4,2.8-26.7c-2,2.7-2.4,8.8-3.3,12.8c-0.9,4.1-2.2,8.3-3.6,12.4c-4.9,14.1-18.4,26.4-31.7,33 c-12.2,6-20.3,5-24.6,8.2c-8.6-2.3-10.8-1.3-12.5-1.4c-1.6-0.2-1.1-0.7-3.5-0.9c-4.6,0.1-1.9,0-3.3-1.1c-1.8,0-0.3,0.2-0.9-0.8 c-2.3,0.9-7.6-1.3-10.1-2.6l-2.8-1.6c-5-3-9.4-5.2-13-9.4c-1.9-2.3-1.6-2-4.2-1.6c-1.2-6.7-13.3-18.3-12.7-29.2 c0.2-3.1,2.1-2.3-0.1-5.1c0-10.2,0.3-23.3,4.2-31.9l2.5-2.5h-0.8l0.8-1.7l0.8-1.7l1.7-2.5c1-3.5,4.5-8.1,7.6-10.1l-0.5-1.8 c-5.6,0.4-6.1,2.7-10.3,3.4c1.5-9,13.7-16.4,20.7-22l-3.2-0.9l6.7-3.8l-1.7-0.4l1.7-0.5l1.7-2.3c-12.4,1.4-28,15.4-35.9,25.9 C23.4,80.1,23.1,105.5,22,107.7l-0.2-10C19,95.6,25,79.5,26.3,76.2c1.9-4.8,9.1-15.6,9.8-18l-1.6-0.3c10-10.5,15.1-17.8,31.2-25.5 c6.9-3.2,13.9-5.2,21.2-6.5c14.4-2.6,15.5-0.5,27.2-1.5c-5.2-2.9-18.9-2.7-25.3-1.7c-1.9,0.3-7.5,1-9,0.9 c4.2-2.4,16.9-2.7,19.5-5.7c-4.7-5.5-25.6,0.7-31.5,3.1C42.9,31,26.4,45,16.2,70.2c-9.4,23-6.2,64.3,8.8,80.6 c7.7,8.4,11.1,12.6,21,19.3C53.1,174.9,65.7,182,73.8,182.5L73.8,182.5z"></path> <path class="st0" d="M71.9,158.9l2.8,1.6c0.1-5.5,4.5-18.1,6.6-23.6c4.6-11.8,14.8-27.7,23.8-36.6c2.9-2.9,14.2-13.2,15.8-15.3 c-9.8,0.9-25.6,21.1-31.2,30.1c-3.9,6.1-8,14.4-9.9,21.2C78.6,140.2,74.3,157.3,71.9,158.9L71.9,158.9z M85.6,164 c1.4,1.1-1.3,1.2,3.3,1.1c1.3-6.2,2.3-12.6,4.3-18.7c1.6-4.9,5.6-11.8,6.6-16.1c-6.3,4.5-11.8,24.5-11.8,31.9 C87.2,165.1,88.9,163.1,85.6,164L85.6,164z M94,221.9c-2-8.3-6.3-11.4-10-31.2c-0.3-1.7,0.1-1-0.6-2.8c-1.2-3.4-0.3-0.9-1.2-2.2 c-1.6,2.8,2.3,16.7,3.3,19.4C87,208.9,90.8,219.7,94,221.9L94,221.9z M144.3,50.3c-6.3-8.7-26-17.3-36.7-16.4l5.1,1.4 C132.3,39.9,141.3,49.9,144.3,50.3L144.3,50.3z M77.2,31.2L98,28.9c1.4,0.1,2,1.8,6-1.1C96,27.8,83,27.2,77.2,31.2z"></path> <path class="st1" d="M132.6,29.5c-2.9-4.1-12.5-7.1-17.6-6.5C115.6,23.4,130.8,29.1,132.6,29.5z"></path> <path class="st0" d="M143.5,236.2l-12.5-9.9C132,231.8,138.1,234.9,143.5,236.2z M84.7,163.1c0.8-1.3,1.7-7.8,2.3-10.3 c0.9-3.4,2.4-6.5,2.7-9.9C86.4,146.8,84.7,157.4,84.7,163.1z"></path> <path class="st1" d="M58.7,63.1l-2.5,5.1l9.2-8.4C61.1,60.1,61.9,61,58.7,63.1L58.7,63.1z"></path> <path class="st0" d="M115.8,206c0.3,2.9,0.8,4.7,2.5,6.9C119.7,210.4,118.1,207.6,115.8,206z M110.8,184.6h-0.8 c-1.1,3-1.5,4.5,1.6,5.2L110.8,184.6z M111,156.3c1.5-2.1,2.1-5.1,2.2-7.3C111.4,151,110.7,153,111,156.3z M78,51.5 c0.5,1.2-1.2,2.3,2.7,1.1c1-0.3,2.5-1.4,3-1.9L78,51.5L78,51.5z M204,243.8h2.5l2.5-0.8v-0.8C205.7,242.2,206.2,241.8,204,243.8 L204,243.8z M160.3,244.6l4.1-0.1l-5.8-1.6L160.3,244.6z M125.9,56.4c-1.8-1.6-1.9-2.1-4.1-1.1L125.9,56.4z M158.6,243l-5-1.7 C155.9,243.3,155.4,242.9,158.6,243z M95.6,49.7l5-0.3l-5-0.6V49.7z M149.4,72.4c-3.5,0-1.6-0.3-3.4,0.8 C149.5,73.2,147.6,73.5,149.4,72.4z M121.7,33.7c-1.7-1.1,0.1-0.8-3.4-0.8C120.1,34,118.2,33.7,121.7,33.7z M89.8,142.9l1.7-3.3 l-1.5,1L89.8,142.9z M118.3,32.9c-0.9-0.6,0.3-1.6-2.4-0.2L118.3,32.9z M72.1,32.9c0.8,0.8,2.6-1.1,1-0.5 C73.1,32.4,71,31.7,72.1,32.9z M77.2,31.2l-2.5,0.1C77.5,32.8,76.2,31.8,77.2,31.2z M48.6,79.1l0.8-1.7h-0.8V79.1z M49.5,77.4 l0.9-1.7h-0.9V77.4z M51.2,74.9l0.8-1.7h-0.8V74.9z M72.1,37.1v0.9l1.7-0.4L72.1,37.1z M179.8,95l0.7-3.3c-0.2,0.2-0.4,0.2-0.5,0.5 L179.8,95z M95.6,225.3l0.2,0.8l0.6-0.5L95.6,225.3z M54.5,69.8l-0.8,0.2l0.5,0.6L54.5,69.8z M99.9,130.3l0.8-0.2l-0.5-0.6 L99.9,130.3z M115.8,206l-0.2-0.8l-0.6,0.5L115.8,206z M144.4,74l-0.8,0.2l0.5,0.6L144.4,74z M92.3,137.1l0.8-0.2l-0.5-0.6 L92.3,137.1z M148.6,238.8l0.2,0.8l0.6-0.5L148.6,238.8z M127.6,57.3l0.2,0.8l0.6-0.5L127.6,57.3z M52.8,72.4l0.8-0.2l-0.5-0.6 L52.8,72.4z M209,242.1l0.8-0.2l-0.5-0.6L209,242.1z M95.6,225.3l-0.2-0.8l-0.6,0.5L95.6,225.3z M140.2,43.8l0.2,0.8l0.6-0.5 L140.2,43.8z"></path> <path class="st1" d="M65.4,59.8l0.8-0.2l-0.5-0.6L65.4,59.8z M36,58.1l0.8-0.2l-0.5-0.6L36,58.1z"></path> <path class="st0" d="M93.1,135.4c0.1,0.1,0.3-0.4,0.3-0.3c0,0.1,0.1-0.1,0.1-0.1C93.5,135.1,92,134.3,93.1,135.4z M113.3,148 c0.1,0.1,0.3-0.4,0.3-0.3c0,0.1,0.1-0.1,0.1-0.1C113.6,147.7,112.2,146.9,113.3,148z M21.8,94.2c0.1,0.1,0.3-0.4,0.3-0.3 c0,0.1,0.1-0.1,0.1-0.1C22.1,93.9,20.6,93.1,21.8,94.2L21.8,94.2z M183,99.3l0.9-1.5L183,99.3z M91.5,139.6l0.8-2.5L91.5,139.6z M51.2,74.9l-0.8,0.8L51.2,74.9z M146,73.2l-1.7,0.8L146,73.2z M52.8,72.4L52,73.2L52.8,72.4z M55.4,69l-0.8,0.8L55.4,69z M56.2,68.2L55.4,69L56.2,68.2z M149.4,72.4l1.7-0.4L149.4,72.4z M134.3,30.4l-1.7-0.9L134.3,30.4z M127.6,57.3l-1.7-0.9 L127.6,57.3z M94,221.9l0.4,1.7L94,221.9z M102.4,224.5l-0.4-1.7L102.4,224.5z M136,31.2l-1.7-0.8L136,31.2z M103.2,225.3l-0.8-0.9 L103.2,225.3z M123.4,34.6l-1.7-0.8L123.4,34.6z M129.3,37.1l-1.7-0.8L129.3,37.1z M145.2,237.1l-1.7-0.9L145.2,237.1z M125.9,35.4 l-2.5-0.8L125.9,35.4z M146.9,237.9l-1.7-0.8L146.9,237.9z M148.6,238.8l-1.7-0.9L148.6,238.8z M127.6,36.2l-1.7-0.9L127.6,36.2z M151.9,240.4l-1.5-0.9L151.9,240.4z M140.2,43.8l-2.5-1.7L140.2,43.8z M153.6,241.3l-1.7-0.9L153.6,241.3z M137.6,42.1l-0.9-0.9 L137.6,42.1z"></path> <path class="st1" d="M21.8,97.6l0.9-1.5L21.8,97.6z"></path> <path class="st0" d="M136.8,41.3l-1.7-0.8L136.8,41.3z M135.1,40.4l-2.5-1.7L135.1,40.4z M132.6,38.8l-1.7-0.8L132.6,38.8z M130.9,37.9l-1.7-0.9L130.9,37.9z M167,269l1.5,0.9L167,269z"></path> </g> </svg>