<svg version="1.1" id="Capa_1" xmlns="http://www.w3.org/2000/svg" x="0" y="0" viewBox="0 0 300 300" xml:space="preserve"><style>.st0{fill:#6593cb}</style><path class="st0" d="M237.7 189.1l.2 7.9h-22.1c-7.9 10-17.9 17-29.3 23h51.4l.2 8.1 18.7-19.5-19.1-19.5zM228.2 141.2c0-40.1-30.1-73.1-68.9-77.8l-.1-9.4-19.4 19.3 19.5 19.1-.1-7.6c27 4.5 47.7 27.7 47.7 56 0 28.5-20.9 53.1-48.2 56.1H61.2l11.3 11.5L61.2 220H158c40-4.1 70.2-38.2 70.2-78.8z"/><path class="st0" d="M121.1 191c-16.9-11-28.3-28.5-28.3-49.5 0-28.3 20.6-51.9 47.6-56.4L128 73.4l10.3-9.7c-37.8 5.6-66.9 38.4-66.9 77.8 0 18.7 6.5 35.5 17.5 49.5h32.2z"/></svg>