<svg xmlns="http://www.w3.org/2000/svg" id="Capa_1" x="0" y="0" viewBox="0 0 300 300" xml:space="preserve"><style>.st0{fill:#40586f}.st1{fill:#219ab5}</style><path class="st0" d="M172.1 284.1l9.2.1c-2.2 1.3-6.2.8-9.2.8v-.9zm-2.6-.8c.8-.8 2.7 1.1 1 .5 0 0-2.1.6-1-.5zm-22.6-5.9c.1-.1.3.1.3.3 0 .1.1.1.1.1-.1-.1-1.6.7-.4-.4zm-2.5-.8c.1-.1.3.1.3.3 0 .1.1.1.1.1-.1-.1-1.6.7-.4-.4zm-2.6-.8c.8-.8 2.7 1.1 1 .5 0-.1-2.1.6-1-.5zm26.1-.9c.1-.1.3.1.3.3 0 .1.1.1.1.1-.1 0-1.5.8-.4-.4zm-28.6 0l1.7.4-1.7-.4zm24.3-.2l-2.4.3c.4-.3-.4-1.8 2.4-.3zm-5.8-1.4c.8-.8 2.6 1.1 1 .5 0-.1-2.1.6-1-.5zm48.7-.9c.8-.8 2.6 1.1 1 .5 0 0-2.1.7-1-.5zm-52.9 0c.8-.8 2.6 1.1 1 .5 0 0-2.1.7-1-.5zm56.3-.8c.1-.1.3.1.3.3 0 .1.1.1.1.1-.1-.1-1.6.7-.4-.4zm3.3-.8c.1-.1.3.1.3.3 0 .1.1.1.1.1 0-.1-1.5.7-.4-.4zm-65.5 0c.8-.8 2.7 1.1 1 .5 0-.1-2.1.6-1-.5zm60.5 0c1.5-1 .5-1.6 3.3-.2l-3.3.2zm4.2-1.7c.1-.1.3.1.3.3 0 .1.1.1.1.1-.1-.1-1.6.7-.4-.4zm-68.9 0c.1-.1.3.1.3.3 0 .1.1.1.1.1 0-.1-1.5.7-.4-.4zm60.5 0c1.5-1 .5-1.6 3.3-.2l-3.3.2zm-63-.8l1.7.4-1.7-.4zm67.2-.9c.1-.1.3.1.3.3 0 .1.1.1.1.1-.1 0-1.5.8-.4-.4zm-42.1.3l-2.4.7c1.2-1-1.6-.9 2.4-.7zm-25.1.6l-1.7-.8 1.7.8zm19.3-1.7c.1-.1.3.1.3.3 0 .1.1.1.1.1 0-.1-1.5.7-.4-.4zm-20.9.8l-1.7-.8 1.7.8zm18.4-1.6c.1-.1.3.1.3.3 0 .1.1.1.1.1 0-.1-1.5.7-.4-.4zm-3.3-.9c.1-.1.3.1.3.3 0 .1.1.1.1.1-.1 0-1.6.8-.4-.4zm64.6-3.3c.1-.1.3.1.3.3 0 .1.1.1.1.1-.1-.1-1.5.7-.4-.4zm1.7-.9c.1-.1.3.1.3.3 0 .1.1.1.1.1-.1 0-1.5.8-.4-.4zm1.7-.8c.1-.1.3.1.3.3 0 .1.1.1.1.1-.1-.1-1.6.7-.4-.4zm3.3-.8l-1.5.9 1.5-.9zm1.7-.9l-1.7.8 1.7-.8zm0 0l.2-.8.6.5-.8.3zm2.5-1.6l-.2.8-.6-.5.8-.3zm1.7-.9l-1.7.8 1.7-.8zm1.7-.8l-1.7.8 1.7-.8zm.8-.8l-.8.8.8-.8zm0 0c1.3-1.9 2.9-2.8 5-3.4-1.6 2.6-2 2.6-5 3.4zm-94.8 21c-10-.9-32.7-18.3-37.8-26 2.4.7 14 11.6 17.8 14.1 3.3 2.2 6.3 4.1 9.8 6.2 3.1 2 7.6 3.4 10.2 5.7zm99.9-24.4c1.6-2.4.9-1.9 3.4-2.5-1.6 2.4-.9 1.9-3.4 2.5zM101.6 249l-.8-.8.8.8zm-.9-.8l-.8-.8.8.8zm-.8-.8l-.8-.8.8.8zm142.7.8l3.4-3.4c-.5 2.7-.9 2.8-3.4 3.4zm-41.1-2.5l-.2.8-.6-.5.8-.3zm-102.5.8l-.8-.2.5-.6.3.8zm102.5-.8l1.5-.9-1.5.9zm44.5-.8l.2-.8.6.5-.8.3zm16-18.5c.1-.1.3.1.3.3 0 .1.1.1.1.1-.1-.1-1.6.7-.4-.4zm2.5-2.5l-.2.8-.6-.5.8-.3zm.8-1.7l-.8 1.7.8-1.7zm0 0l1.7-2.5-1.7 2.5zm2.5-4.2l-.8 1.7.8-1.7zm-186.4 0c.1-.1.3.1.3.3 0 .1.1.1.1.1-.1-.1-1.5.7-.4-.4zm187.3-1.7l-.8 1.7.8-1.7zm.8-1.7l-.8 1.7.8-1.7zm0 0l.4-1.7-.4 1.7zm1.7-4.2l-.4 1.7.4-1.7zm0 0l.4-1.7-.4 1.7zm.8-3.3c.1-.1.3.1.3.3 0 .1.1.1.1.1-.1-.1-1.5.7-.4-.4zm.9-1.7c0-1.9 1-.2.5 0 0 0-.5 2.1-.5 0zm.8-3.4c.1-.1.3.1.3.3 0 .1.1.1.1.1-.1-.1-1.6.7-.4-.4zm1.7-5c0-1.9 1-.2.5 0 0 0-.5 2.1-.5 0zm.8-4.2c.1-.1.3.1.3.3 0 .1.1.1.1.1-.1-.1-1.5.7-.4-.4zm.7-4.2c.9 1.1.9-1.2.8 2.4l-.8-2.4zm1.2-.9c-.2-1.8.9-19.3 1.3-20 .5 5.2 1.1 15.9-1.3 20zM209 243.2l-2.5.8c-.5 2.6-2.5 0-2.5 0-4.3 0-6.1 1.2-10.1 1.7-3.5.4-8.3.6-11.6 1.1-5.6.9-17.9 1-22-1.9-8-.7-20.6-9-25-9.1.8 4.5 4.7 8.6 7.3 12.2-13.3 1.5-24.7-13.9-34.1-20.7l1.3 3.9c-3.9-.6-3.7-3.6-6.6-5.7l-1.4.9-3.4-3.4c.9 8.7 19.4 25.1 26.4 30.4 9.7 7.3 30.4 15.8 42.1 15.8 2-2.6 2.2-.1 5.1.8.3.1 1.6.2 2.2.3 11.3 2 21.2-1.1 29.6-1.1-4.6 3.2-12.3 2.9-18.4 3.6 6.4 3 15.9-1.8 22.6-1.9-10.3 7.2-42 4-57.6-1.2-3.5-1.2-13.9-5.9-16.2-6.2l3.3 3.1c-13.6-3.3-32.1-21.6-40.1-32.2-4.8-6.3-10.2-15.1-13.3-22.8-3.1-7.7-7.9-20.4-7.9-28.9l-2.5-.2c1.1 4.7 1.3 10.3 3.2 17.8 1.3 5.2 2.9 11.8 5.1 16.4-2.9-.7-5.2-8-6.4-11-.9-2.3-1.5-4.1-2.3-6.2-1.1-2.9-1.6-4.5-3.9-5.4-2.5 4.5-.4 11 1 15.1 11 32.4 36.3 61.8 68.4 72.7 14 4.7 19.7 5.6 34.8 5.6 20.9 0 47-5.7 64.3-16.3 24.8-15.2 41.1-46.5 45.8-75.2 2-12.1 2-25 0-37.2-6.9-42-35.8-72.5-75.8-85.5-9.1-3-24.7-6.4-34.1-5.9-2.3-3-4.1-7.7-7.1-11.7-6.1-8.2-21.7-23.7-30.9-24.5 1.6 2.2 7.7 5.1 10.3 7.4 6.5 5.6 23.6 22.3 24.8 28.6-6 .5-15.3-.7-19.9 1.6 6.7.7 13-1.3 20.7-.4 2.6 2.3 1.5 2.4 3.4 3.9l-.7-3.9c2.6.4 5 .4 7.5.8 2.6.4 4.7 1.4 7.6 1.7-.5 2.8-1.6 1.7 7.7 5.2-4.5.7-14.9-1.9-20.2-2.1-2.5-.1-16.7.3-17.4 4.9 4.9 3.5 29.7 1.2 39.2 5.9-3.8.4-7-.5-10.9-.6-3.9-.2-6.3-1-10.9-.9-3.8.1-17.2 1.5-19.2 4 7.7.9 11.3-.5 24.4 1 8.1.9 12.8.1 20.9 4.3 3.7 1.9 4.8 1.1 7.6 2.5 2.1 1 11.7 6.7 13 8 14.8 14.8 22.2 20.1 30.3 41.1 1.3 3.3 3.1 4.9 3.7 7.2l1 17.8c-.9 5.9-.1 12.4-1.5 18.7-1.8 8.2-6.6 21.4-12.4 27.9.2 2.5-.1-.7 1 2.7-4.8 1.9-11.5 10.2-16.4 13.8-3.7 2.8-4.5 4.8-8.7 6.4-3.2 1.2-8.6 4-11.7 4.3v.2z"/><path class="st1" d="M83.9 179.9c.8-.8 2.6 1.1 1 .5 0 0-2.1.6-1-.5zm-5-.8l2.5.1c-2.8 1.5-1.6.5-2.5-.1zm0 0l-2.5-.1c2.8-1.5 1.5-.5 2.5.1zm-4.2-1.7c.1-.1.3.1.3.3 0 .1.1.1.1.1-.1-.1-1.6.7-.4-.4zm-19.3-10.1l.8.2-.5.6-.3-.8zm0 0l-.8-.2.5-.6.3.8zm-3.4-2.5l.8.2-.5.6-.3-.8zm0 0l-.8-.8.8.8zm-.8-.8l-.8-.2.5-.6.3.8zm-16.8-20.2l.8.2-.5.6-.3-.8zm0 0l-.8-.2.5-.6.3.8zm-1.7-2.5l.8.2-.5.6-.3-.8zm0 0l-.9-1.5.9 1.5zm-1.7-3.4c.1-.1.3.1.3.3 0 .1.1.1.1.1-.1 0-1.5.8-.4-.4zm-.8-1.6c.1-.1.3.1.3.3 0 .1.1.1.1.1-.1-.1-1.6.7-.4-.4zm-.9-1.7c0-1.9 1-.2.5 0 .1 0-.5 2.2-.5 0zm-.8-2.5c.1-.1.3.1.3.3 0 .1.1.1.1.1-.1-.1-1.5.7-.4-.4zm142.8-1.7l-.2.8-.6-.5.8-.3zm-6.8-.9l-.4 1.7.4-1.7zm-136.8 0c.1-.1.3.1.3.3 0 .1.1.1.1.1-.1 0-1.6.8-.4-.4zm137.7-1.6l-.8 1.7.8-1.7zM42 113.6l-.1 2.5c-1.6-2.8-.6-1.5.1-2.5zM20.7 98.5l.2 13.3c-1.4-2.6-1.4-10.7-.2-13.3zm19.6 11.7c.1-.1.3.1.3.3 0 .1.1.1.1.1-.1-.1-1.6.7-.4-.4zM14.2 85.9c0-1.9 1-.2.5 0 .1 0-.5 2.1-.5 0zm.9-3.4c.1-.1.3.1.3.3 0 .1.1.1.1.1-.1-.1-1.6.7-.4-.4zm32.7-3.4l-.2.8-.6-.5.8-.3zM33.5 59.8l-.2.8-.6-.5.8-.3zm0 0l.2-.8.6.5-.8.3zm-6.7-.8c.1-.1.3.1.3.3 0 .1.1.1.1.1-.1-.1-1.5.7-.4-.4zm2.5-2.6l-.2.8-.6-.5.8-.3zm.9-.8l-.8.8.8-.8zm.8-1.7l-.8 1.7.8-1.7zm.8-.8l-.8.8.8-.8zm.9-.8l-.8.8.8-.8zm0 0c.7-2.5.1-1.8 2.5-3.4-.7 2.5-.1 1.8-2.5 3.4zm4.2-5.1l-.1 1.5-1.6.2 1.7-1.7zm1.6-1.7l-.1 1.5-1.6.2 1.7-1.7zm0 0c1.6-2.4 3.9-5.1 6.7-5.9-1.6 2.5-3.9 5.2-6.7 5.9zm6.7-5.8c1.7-2.5 3.9-4.3 6.7-5.1-1.3 2-4.4 4.5-6.7 5.1zm6.8-5.1l.2-.8.6.5-.8.3zm21.8 147.9l2.5.2c4 3.6 28.2 4.5 33.6 1.9h.8c12.5 1.5 40.4-15.6 50-28.5 12.1-16.3 22.2-35.2 22.2-56.8-1 1.6-2.2 10.9-2.9 14-1.4 5.8-1.7 7.6-4.4 13.2l-2.2.1-2.2 3.8c.4-4.1 2.7-8.6 3.6-13.2 1-5.2 2.3-9.5-.2-14.5-4.6 3.3-5 20.4-9.2 25.2.2-7.5 6.2-19.4 2.8-26.7-2 2.7-2.4 8.8-3.3 12.8-.9 4.1-2.2 8.3-3.6 12.4-4.9 14.1-18.4 26.4-31.7 33-12.2 6-20.3 5-24.6 8.2-8.6-2.3-10.8-1.3-12.5-1.4-1.6-.2-1.1-.7-3.5-.9-4.6.1-1.9 0-3.3-1.1-1.8 0-.3.2-.9-.8-2.3.9-7.6-1.3-10.1-2.6l-2.8-1.6c-5-3-9.4-5.2-13-9.4-1.9-2.3-1.6-2-4.2-1.6-1.2-6.7-13.3-18.3-12.7-29.2.2-3.1 2.1-2.3-.1-5.1 0-10.2.3-23.3 4.2-31.9l2.5-2.5h-.8l.8-1.7.8-1.7 1.7-2.5c1-3.5 4.5-8.1 7.6-10.1l-.5-1.8c-5.6.4-6.1 2.7-10.3 3.4 1.5-9 13.7-16.4 20.7-22l-3.2-.9 6.7-3.8-1.7-.4 1.7-.5 1.7-2.3c-12.4 1.4-28 15.4-35.9 25.9-14.5 19-14.8 44.4-15.9 46.6l-.2-10C19 95.6 25 79.5 26.3 76.2c1.9-4.8 9.1-15.6 9.8-18l-1.6-.3c10-10.5 15.1-17.8 31.2-25.5 6.9-3.2 13.9-5.2 21.2-6.5 14.4-2.6 15.5-.5 27.2-1.5-5.2-2.9-18.9-2.7-25.3-1.7-1.9.3-7.5 1-9 .9 4.2-2.4 16.9-2.7 19.5-5.7-4.7-5.5-25.6.7-31.5 3.1-24.9 10-41.4 24-51.6 49.2-9.4 23-6.2 64.3 8.8 80.6 7.7 8.4 11.1 12.6 21 19.3 7.1 4.8 19.7 11.9 27.8 12.4z"/><path class="st0" d="M71.9 158.9l2.8 1.6c.1-5.5 4.5-18.1 6.6-23.6 4.6-11.8 14.8-27.7 23.8-36.6 2.9-2.9 14.2-13.2 15.8-15.3-9.8.9-25.6 21.1-31.2 30.1-3.9 6.1-8 14.4-9.9 21.2-1.2 3.9-5.5 21-7.9 22.6zm13.7 5.1c1.4 1.1-1.3 1.2 3.3 1.1 1.3-6.2 2.3-12.6 4.3-18.7 1.6-4.9 5.6-11.8 6.6-16.1-6.3 4.5-11.8 24.5-11.8 31.9-.8 2.9.9.9-2.4 1.8zm8.4 57.9c-2-8.3-6.3-11.4-10-31.2-.3-1.7.1-1-.6-2.8-1.2-3.4-.3-.9-1.2-2.2-1.6 2.8 2.3 16.7 3.3 19.4 1.5 3.8 5.3 14.6 8.5 16.8zm50.3-171.6c-6.3-8.7-26-17.3-36.7-16.4l5.1 1.4c19.6 4.6 28.6 14.6 31.6 15zM77.2 31.2L98 28.9c1.4.1 2 1.8 6-1.1-8 0-21-.6-26.8 3.4z"/><path class="st1" d="M132.6 29.5c-2.9-4.1-12.5-7.1-17.6-6.5.6.4 15.8 6.1 17.6 6.5z"/><path class="st0" d="M143.5 236.2l-12.5-9.9c1 5.5 7.1 8.6 12.5 9.9zm-58.8-73.1c.8-1.3 1.7-7.8 2.3-10.3.9-3.4 2.4-6.5 2.7-9.9-3.3 3.9-5 14.5-5 20.2z"/><path class="st1" d="M58.7 63.1l-2.5 5.1 9.2-8.4c-4.3.3-3.5 1.2-6.7 3.3z"/><path class="st0" d="M115.8 206c.3 2.9.8 4.7 2.5 6.9 1.4-2.5-.2-5.3-2.5-6.9zm-5-21.4h-.8c-1.1 3-1.5 4.5 1.6 5.2l-.8-5.2zm.2-28.3c1.5-2.1 2.1-5.1 2.2-7.3-1.8 2-2.5 4-2.2 7.3zM78 51.5c.5 1.2-1.2 2.3 2.7 1.1 1-.3 2.5-1.4 3-1.9l-5.7.8zm126 192.3h2.5l2.5-.8v-.8c-3.3 0-2.8-.4-5 1.6zm-43.7.8l4.1-.1-5.8-1.6 1.7 1.7zM125.9 56.4c-1.8-1.6-1.9-2.1-4.1-1.1l4.1 1.1zM158.6 243l-5-1.7c2.3 2 1.8 1.6 5 1.7zm-63-193.3l5-.3-5-.6v.9zm53.8 22.7c-3.5 0-1.6-.3-3.4.8 3.5 0 1.6.3 3.4-.8zm-27.7-38.7c-1.7-1.1.1-.8-3.4-.8 1.8 1.1-.1.8 3.4.8zM89.8 142.9l1.7-3.3-1.5 1-.2 2.3zm28.5-110c-.9-.6.3-1.6-2.4-.2l2.4.2zm-46.2 0c.8.8 2.6-1.1 1-.5 0 0-2.1-.7-1 .5zm5.1-1.7l-2.5.1c2.8 1.5 1.5.5 2.5-.1zM48.6 79.1l.8-1.7h-.8v1.7zm.9-1.7l.9-1.7h-.9v1.7zm1.7-2.5l.8-1.7h-.8v1.7zm20.9-37.8v.9l1.7-.4-1.7-.5zM179.8 95l.7-3.3c-.2.2-.4.2-.5.5l-.2 2.8zM95.6 225.3l.2.8.6-.5-.8-.3zM54.5 69.8l-.8.2.5.6.3-.8zm45.4 60.5l.8-.2-.5-.6-.3.8zm15.9 75.7l-.2-.8-.6.5.8.3zm28.6-132l-.8.2.5.6.3-.8zm-52.1 63.1l.8-.2-.5-.6-.3.8zm56.3 101.7l.2.8.6-.5-.8-.3zm-21-181.5l.2.8.6-.5-.8-.3zM52.8 72.4l.8-.2-.5-.6-.3.8zM209 242.1l.8-.2-.5-.6-.3.8zM95.6 225.3l-.2-.8-.6.5.8.3zm44.6-181.5l.2.8.6-.5-.8-.3z"/><path class="st1" d="M65.4 59.8l.8-.2-.5-.6-.3.8zM36 58.1l.8-.2-.5-.6-.3.8z"/><path class="st0" d="M93.1 135.4c.1.1.3-.4.3-.3 0 .1.1-.1.1-.1 0 .1-1.5-.7-.4.4zm20.2 12.6c.1.1.3-.4.3-.3 0 .1.1-.1.1-.1-.1.1-1.5-.7-.4.4zM21.8 94.2c.1.1.3-.4.3-.3 0 .1.1-.1.1-.1-.1.1-1.6-.7-.4.4zM183 99.3l.9-1.5-.9 1.5zm-91.5 40.3l.8-2.5-.8 2.5zM51.2 74.9l-.8.8.8-.8zm94.8-1.7l-1.7.8 1.7-.8zm-93.2-.8l-.8.8.8-.8zm2.6-3.4l-.8.8.8-.8zm.8-.8l-.8.8.8-.8zm93.2 4.2l1.7-.4-1.7.4zm-15.1-42l-1.7-.9 1.7.9zm-6.7 26.9l-1.7-.9 1.7.9zM94 221.9l.4 1.7-.4-1.7zm8.4 2.6l-.4-1.7.4 1.7zM136 31.2l-1.7-.8 1.7.8zm-32.8 194.1l-.8-.9.8.9zm20.2-190.7l-1.7-.8 1.7.8zm5.9 2.5l-1.7-.8 1.7.8zm15.9 200l-1.7-.9 1.7.9zM125.9 35.4l-2.5-.8 2.5.8zm21 202.5l-1.7-.8 1.7.8zm1.7.9l-1.7-.9 1.7.9zm-21-202.6l-1.7-.9 1.7.9zm24.3 204.2l-1.5-.9 1.5.9zM140.2 43.8l-2.5-1.7 2.5 1.7zm13.4 197.5l-1.7-.9 1.7.9zm-16-199.2l-.9-.9.9.9z"/><path class="st1" d="M21.8 97.6l.9-1.5-.9 1.5z"/><path class="st0" d="M136.8 41.3l-1.7-.8 1.7.8zm-1.7-.9l-2.5-1.7 2.5 1.7zm-2.5-1.6l-1.7-.8 1.7.8zm-1.7-.9l-1.7-.9 1.7.9zM167 269l1.5.9-1.5-.9z"/></svg>