<svg xmlns="http://www.w3.org/2000/svg" id="Capa_1" x="0" y="0" viewBox="0 0 300 300" xml:space="preserve"><style>.st1{fill:#ffaa19}.st2{fill:#159794}.st3{fill:#00a4de}.st4{fill:#90cf03}.st5{fill:#85096a}</style><circle cx="149" cy="160" r="51.3" fill="#c9d1d9"/><path class="st1" d="M25.3 177.7c-1.9-.8-3.7-1.7-5.4-2.7 2.2 19 8.5 36.7 17.9 52.3.9-1.6 1.9-3.2 3-4.7-7.8-13.6-13.2-28.8-15.5-44.9z"/><path class="st2" d="M243.8 78.7c2-.3 4-.5 6-.6-13.1-16.1-29.9-28.9-49.2-37.3.2 1.9.4 3.7.4 5.6 16.5 7.6 31.1 18.6 42.8 32.3z"/><path class="st3" d="M272.7 177.7c-2.2 15.3-7.1 29.6-14.3 42.6 1.2 1.4 2.2 2.9 3.2 4.5 8.6-15 14.4-31.8 16.5-49.8-1.7 1-3.5 1.9-5.4 2.7z"/><path class="st4" d="M97 46.4c0-1.9.2-3.8.4-5.6C78.1 49.1 61.3 62 48.2 78.1c2 .1 4 .3 6 .6C65.9 65 80.5 54 97 46.4z"/><path class="st5" d="M149 285c-8 0-15.8-.8-23.4-2.2-1.1 1.5-2.2 3-3.5 4.4 8.7 1.8 17.6 2.8 26.8 2.8 10.1 0 19.9-1.2 29.4-3.3-1.2-1.4-2.3-2.9-3.4-4.4-8.3 1.7-17 2.7-25.9 2.7z"/><circle class="st2" cx="149" cy="47" r="47"/><circle class="st1" cx="83" cy="253" r="47"/><circle class="st5" cx="218" cy="253" r="47"/><circle class="st4" cx="46" cy="130" r="47"/><circle class="st3" cx="252" cy="130" r="47"/></svg>