<svg version="1.1" id="Capa_1" xmlns="http://www.w3.org/2000/svg" x="0" y="0" viewBox="0 0 200 200" xml:space="preserve"><style>.st0{fill:none}</style><path class="st0" d="M115.7 110.3L88.6 97.6l-27.1 13.1L88.6 123z"/><path class="st0" d="M34.4 147.1c0 .7-.3 1.3-.8 1.8s-1.2.7-1.9.7c-.1 0-11.1-.5-18.3 6.4-3.8 3.7-6 8.8-6.3 15.4v3.8c.5 6.1 3.8 11 9.7 14.6 4.5 2.7 9 3.7 9.9 3.9h149.6V85c-5 9.1-10 18.3-15.1 27.4-.7 1.2-1.7 2.4-2.8 3.2-6.2 4.6-12.4 9-18.6 13.5-.5.4-1.1.7-2 1.3.5-9.2 1-18 1.6-26.7 0-.8.4-1.5.8-2.2 5.9-10.7 11.8-21.5 17.6-32.2H34.4v77.8zm18.7-36.3c0-.2 0-.4.1-.6v-.2c.1-.2.1-.3.2-.5 0 0 0-.1.1-.1.1-.2.2-.3.4-.5l.1-.1c.1-.1.3-.2.4-.3l.1-.1 33-16c.7-.3 1.5-.3 2.2 0l33 15.5h.1c.2.1.3.2.5.3l.1.1c.2.1.3.3.4.5v.1c.1.2.2.3.2.5v.2c.1.2.1.4.1.6v39.5c0 .9-.5 1.7-1.2 2.2l-33 19.5h-.1c-.1.1-.3.1-.4.2h-.2c-.2 0-.4.1-.6.1-.2 0-.4 0-.6-.1h-.2c-.1 0-.3-.1-.4-.2h-.1l-33-19c-.8-.4-1.3-1.3-1.3-2.2v-39.4z"/><path class="st0" d="M29.4 144.7v-104c-3.7.2-11.1 1.4-16.4 6.4-4 3.8-6 9.2-6 16.1l.1 92.6c.9-1.2 1.8-2.3 2.9-3.4 6.6-6.2 15.2-7.5 19.4-7.7zM154.3 111.1c-2.9-1.6-5.7-3.1-8.6-4.7-1.6-.9-2.1-.1-2.2 1.4-.3 2.9-.6 5.8-.8 8.7-.1 1.2-.2 2.3-.2 3.5 0 .5.2 1.3.6 1.5.4.2 1.1 0 1.5-.3l9.9-7.5c1.1-1.1 1.1-1.9-.2-2.6zM58.1 114.7v34.2l28 16.1v-37.6zM119.1 148.4v-34.2l-28 13.2v37.5z"/><path d="M34.4 35.6h-2.2l2.2.1zM29.4 35.6h.5-.5zM31.7 40.6s-.9 0-2.3.1v104c-4.3.2-12.9 1.5-19.3 7.7-1.1 1-2.1 2.2-2.9 3.4v15.7c.4-6.5 2.5-11.7 6.3-15.4 7.2-6.8 18.2-6.4 18.3-6.4.7 0 1.4-.2 1.9-.7.5-.5.8-1.1.8-1.8V69.3H158c.9-1.7 1.8-3.3 2.7-5H34.4V36.5l-.2 4.2-2.5-.1zM176.4 193.6H26.8c-1-.2-5.4-1.2-9.9-3.9-5.9-3.6-9.2-8.4-9.7-14.6v.8H2.3c1.5 14.9 16.1 21.3 24 22.6H179c1.4 0 2.5-1.1 2.5-2.5V75.8c-1.7 3-3.3 6.1-5 9.1v108.7zM2.1 173.5c0 .7 0 1.3.1 1.9V171c-.1.8-.1 1.6-.1 2.5z"/><path d="M7.2 175.2v-19.5L7 63.2c0-6.9 2-12.3 6-16.1 5.2-5 12.6-6.1 16.4-6.4 1.4-.1 2.3-.1 2.3-.1l2.5.1.2-4.2v-.8l-2.2-.1h-2.9c-4.3.2-13.2 1.5-19.8 7.7-5 4.8-7.6 11.4-7.6 19.8L2.2 171v5h5v-.8zM53.2 110.2v-.2.2zM123.2 108.4l.1.1c0-.1-.1-.1-.1-.1zM123.7 108.9c0 .1 0 .1 0 0 0 .1 0 .1 0 0zM124 109.5v0zM53.9 109l.1-.1-.1.1zM53.4 109.6s0-.1.1-.1l-.1.1zM89.3 171.7h-.2.2zM88 171.7h-.2.2z"/><path d="M124 109.7v-.2c-.1-.2-.1-.3-.2-.5v-.1c-.1-.2-.2-.3-.4-.5l-.1-.1c-.1-.1-.3-.2-.5-.3h-.1l-33-15.5c-.7-.3-1.5-.3-2.2 0l-33 16-.1.1c-.2.1-.3.2-.4.3l-.1.1c-.1.1-.3.3-.4.5 0 0 0 .1-.1.1-.1.1-.2.3-.2.5v.2c0 .2-.1.4-.1.6v39.5c0 .9.5 1.7 1.3 2.2l33 19h.1c.1.1.3.1.4.2h.2c.2 0 .4.1.6.1.2 0 .4 0 .6-.1h.2c.2 0 .3-.1.4-.2h.1l33-19.5c.8-.5 1.2-1.3 1.2-2.2v-39.5c-.1-.3-.1-.5-.2-.7zM86.1 165l-28-16.1v-34.2l28 12.7V165zm2.5-42l-27.1-12.3 27.1-13.2 27.1 12.7L88.6 123zm30.5 25.4l-28 16.5v-37.5l28-13.2v34.2zM170.3 46.9c-3.2 5.8-6.3 11.6-9.5 17.4-.9 1.7-1.8 3.3-2.7 5-5.9 10.7-11.8 21.5-17.6 32.2-.4.7-.8 1.5-.8 2.2-.6 8.7-1.1 17.5-1.6 26.7.9-.6 1.5-.9 2-1.3 6.2-4.5 12.5-9 18.6-13.5 1.1-.8 2.1-2 2.8-3.2 5-9.1 10.1-18.3 15.1-27.4 1.7-3 3.3-6.1 5-9.1 2.5-4.6 5-9.2 7.6-13.8.9-1.6 1.7-3.3 2.7-5.1-7-3.8-13.8-7.5-20.6-11.3-.6.5-.8.9-1 1.2zm-15.9 66.6l-9.9 7.5c-.4.3-1.2.5-1.5.3-.4-.2-.6-.9-.6-1.5 0-1.2.1-2.3.2-3.5.3-2.9.6-5.8.8-8.7.1-1.5.6-2.2 2.2-1.4 2.8 1.6 5.7 3.1 8.6 4.7 1.4.9 1.4 1.7.2 2.6zM196.5 38.4c-4.1-2.3-8.2-4.6-12.4-6.8-2.4-1.2-4.9-.6-6.3 1.6-1.4 2.2-2.5 4.5-3.9 7 7 3.8 13.8 7.5 20.7 11.3.6-.9 1-1.7 1.4-2.4.8-1.5 1.7-3 2.5-4.6 1.1-2.3.3-4.8-2-6.1z"/><path fill="#3cbfbd" d="M119.1 148.4l-28 16.5v-37.5l28-13.2z"/><path fill="#7759a6" d="M88.6 123l-27.1-12.3 27.1-13.1 27.1 12.7z"/><path fill="#0172b1" d="M86.1 165l-28-16.1v-34.2l28 12.7z"/></svg>