<?xml version="1.0" encoding="UTF-8"?> <!-- Generator: Adobe Illustrator 25.4.1, SVG Export Plug-In . SVG Version: 6.00 Build 0) --> <svg xmlns="http://www.w3.org/2000/svg" xmlns:xlink="http://www.w3.org/1999/xlink" version="1.1" id="Layer_1" x="0px" y="0px" viewBox="0 0 600 600" style="enable-background:new 0 0 600 600;" xml:space="preserve"> <style type="text/css"> .st0{fill:#333333;} .st1{fill-rule:evenodd;clip-rule:evenodd;fill:#333333;} .st2{fill-rule:evenodd;clip-rule:evenodd;fill:url(#XMLID_00000050657297875528997860000017772291311535418257_);} .st3{clip-path:url(#XMLID_00000167366017439528502520000010609153021342680237_);} .st4{fill:none;} .st5{opacity:0.66;fill:#B4B4B4;} .st6{fill:url(#SVGID_1_);} </style> <g> <g> <path class="st0" d="M296.7,435.2c-1.5,0-2.9-0.4-4.2-1.1l-13.3-7.9c-2-1.1-1-1.5-0.4-1.7c2.7-0.9,3.2-1.1,6-2.7 c0.3-0.2,0.7-0.1,1,0.1l10.2,6.1c0.4,0.2,0.9,0.2,1.2,0l40-23.1c0.4-0.2,0.6-0.6,0.6-1.1v-46.1c0-0.5-0.2-0.9-0.6-1.1l-39.9-23 c-0.4-0.2-0.9-0.2-1.2,0l-39.9,23c-0.4,0.2-0.6,0.7-0.6,1.1v46.1c0,0.4,0.2,0.9,0.6,1.1l10.9,6.3c5.9,3,9.6-0.5,9.6-4v-45.5 c0-0.6,0.5-1.2,1.2-1.2h5.1c0.6,0,1.2,0.5,1.2,1.2v45.5c0,7.9-4.3,12.5-11.8,12.5c-2.3,0-4.1,0-9.2-2.5l-10.5-6 c-2.6-1.5-4.2-4.3-4.2-7.3v-46.1c0-3,1.6-5.8,4.2-7.3l40-23.1c2.5-1.4,5.9-1.4,8.4,0l40,23.1c2.6,1.5,4.2,4.3,4.2,7.3v46.1 c0,3-1.6,5.8-4.2,7.3l-40,23.1C299.6,434.8,298.2,435.2,296.7,435.2z"></path> <path class="st0" d="M309,403.5c-17.5,0-21.1-8-21.1-14.8c0-0.6,0.5-1.2,1.2-1.2h5.2c0.6,0,1.1,0.4,1.1,1 c0.8,5.3,3.1,7.9,13.7,7.9c8.4,0,12-1.9,12-6.4c0-2.6-1-4.5-14.1-5.8c-10.9-1.1-17.7-3.5-17.7-12.2c0-8.1,6.8-12.9,18.2-12.9 c12.8,0,19.1,4.4,19.9,14c0,0.3-0.1,0.6-0.3,0.9c-0.2,0.2-0.5,0.4-0.8,0.4H321c-0.5,0-1-0.4-1.1-0.9c-1.2-5.5-4.3-7.3-12.5-7.3 c-9.2,0-10.3,3.2-10.3,5.6c0,2.9,1.3,3.8,13.7,5.4c12.3,1.6,18.1,3.9,18.1,12.6C328.9,398.5,321.7,403.5,309,403.5z"></path> </g> <g> <path class="st0" d="M366.6,355.1c0,4.2-3.5,7.7-7.7,7.7c-4.2,0-7.7-3.4-7.7-7.7c0-4.4,3.6-7.7,7.7-7.7 C363.1,347.4,366.6,350.7,366.6,355.1z M352.5,355.1c0,3.6,2.9,6.5,6.4,6.5c3.6,0,6.5-3,6.5-6.5c0-3.6-2.9-6.4-6.5-6.4 C355.4,348.6,352.5,351.5,352.5,355.1z M356,350.8h3c1,0,3,0,3,2.3c0,1.6-1,1.9-1.6,2.1c1.2,0.1,1.3,0.9,1.4,2 c0.1,0.7,0.2,1.9,0.4,2.3h-1.8c0-0.4-0.3-2.6-0.3-2.7c-0.1-0.5-0.3-0.7-0.9-0.7h-1.5v3.5H356V350.8z M357.7,354.6h1.3 c1.1,0,1.3-0.8,1.3-1.2c0-1.2-0.8-1.2-1.3-1.2h-1.4V354.6z"></path> </g> <path class="st1" d="M173,254.8c0-1.8-1-3.5-2.6-4.4L128,226c-0.7-0.4-1.5-0.6-2.3-0.7c-0.1,0-0.4,0-0.4,0c-0.8,0-1.6,0.3-2.3,0.7 l-42.4,24.4c-1.6,0.9-2.6,2.6-2.6,4.4l0.1,65.6c0,0.9,0.5,1.8,1.3,2.2c0.8,0.5,1.8,0.5,2.5,0l25.2-14.4c1.6-0.9,2.6-2.6,2.6-4.4 v-30.7c0-1.8,1-3.5,2.6-4.4l10.7-6.2c0.8-0.5,1.7-0.7,2.6-0.7c0.9,0,1.8,0.2,2.5,0.7l10.7,6.2c1.6,0.9,2.6,2.6,2.6,4.4v30.7 c0,1.8,1,3.5,2.6,4.4l25.2,14.4c0.8,0.5,1.8,0.5,2.6,0c0.8-0.4,1.3-1.3,1.3-2.2L173,254.8z"></path> <path class="st1" d="M376.8,164.6c-0.8-0.4-1.8-0.4-2.5,0c-0.8,0.5-1.3,1.3-1.3,2.2v65c0,0.6-0.3,1.2-0.9,1.6 c-0.6,0.3-1.2,0.3-1.8,0l-10.6-6.1c-1.6-0.9-3.5-0.9-5.1,0l-42.4,24.5c-1.6,0.9-2.6,2.6-2.6,4.4v48.9c0,1.8,1,3.5,2.6,4.4 l42.4,24.5c1.6,0.9,3.5,0.9,5.1,0l42.4-24.5c1.6-0.9,2.6-2.6,2.6-4.4V183.1c0-1.9-1-3.6-2.6-4.5L376.8,164.6z M372.8,289 c0,0.5-0.2,0.9-0.6,1.1l-14.5,8.4c-0.4,0.2-0.9,0.2-1.3,0l-14.5-8.4c-0.4-0.2-0.6-0.7-0.6-1.1v-16.8c0-0.5,0.2-0.9,0.6-1.1 l14.5-8.4c0.4-0.2,0.9-0.2,1.3,0l14.5,8.4c0.4,0.2,0.6,0.7,0.6,1.1V289z"></path> <g> <path class="st1" d="M517.9,271.8c1.6-0.9,2.5-2.6,2.5-4.4v-11.9c0-1.8-1-3.5-2.5-4.4l-42.1-24.4c-1.6-0.9-3.5-0.9-5.1,0 l-42.4,24.5c-1.6,0.9-2.6,2.6-2.6,4.4v48.9c0,1.8,1,3.5,2.6,4.4l42.1,24c1.6,0.9,3.5,0.9,5,0l25.5-14.2c0.8-0.4,1.3-1.3,1.3-2.2 c0-0.9-0.5-1.8-1.3-2.2l-42.6-24.5c-0.8-0.5-1.3-1.3-1.3-2.2v-15.3c0-0.9,0.5-1.8,1.3-2.2l13.3-7.6c0.8-0.5,1.8-0.5,2.6,0 l13.3,7.6c0.8,0.5,1.3,1.3,1.3,2.2v12.1c0,0.9,0.5,1.8,1.3,2.2c0.8,0.5,1.8,0.5,2.6,0L517.9,271.8z"></path> <path class="st1" d="M472.6,269.5c0.3-0.2,0.7-0.2,1,0l8.1,4.7c0.3,0.2,0.5,0.5,0.5,0.9v9.4c0,0.4-0.2,0.7-0.5,0.9l-8.1,4.7 c-0.3,0.2-0.7,0.2-1,0l-8.1-4.7c-0.3-0.2-0.5-0.5-0.5-0.9V275c0-0.4,0.2-0.7,0.5-0.9L472.6,269.5z"></path> </g> <g> <linearGradient id="XMLID_00000117645876630209775320000010343504635603241875_" gradientUnits="userSpaceOnUse" x1="194.1963" y1="279.803" x2="288.4002" y2="279.803"> <stop offset="5.301339e-03" style="stop-color:#000000"></stop> <stop offset="0.1938" style="stop-color:#171717"></stop> <stop offset="0.5423" style="stop-color:#3D3D3D"></stop> <stop offset="0.8235" style="stop-color:#545454"></stop> <stop offset="1" style="stop-color:#5C5C5C"></stop> </linearGradient> <path id="XMLID_67_" style="fill-rule:evenodd;clip-rule:evenodd;fill:url(#XMLID_00000117645876630209775320000010343504635603241875_);" d=" M238.8,226.9c1.6-0.9,3.5-0.9,5.1,0l42,24.3c1.6,0.9,2.5,2.6,2.5,4.4v48.5c0,1.8-1,3.5-2.5,4.4l-42,24.3c-1.6,0.9-3.5,0.9-5.1,0 l-42-24.3c-1.6-0.9-2.5-2.6-2.5-4.4v-48.5c0-1.8,1-3.5,2.5-4.4L238.8,226.9z"></path> <g> <defs> <path id="XMLID_64_" d="M243.8,226.9c-1.6-0.9-3.5-0.9-5.1,0l-42,24.3c-1.6,0.9-2.5,2.6-2.5,4.4v48.5c0,1.8,1,3.5,2.5,4.4 l42,24.3c1.6,0.9,3.5,0.9,5.1,0l42-24.3c1.6-0.9,2.5-2.6,2.5-4.4v-48.5c0-1.8-1-3.5-2.5-4.4L243.8,226.9z"></path> </defs> <clipPath id="XMLID_00000094596905197664674420000000580685208057615294_"> <use xlink:href="#XMLID_64_" style="overflow:visible;"></use> </clipPath> <g style="clip-path:url(#XMLID_00000094596905197664674420000000580685208057615294_);"> <path class="st4" d="M238.7,226.9l-42.1,24.3c-1.6,0.9-2.6,2.6-2.6,4.4v48.5c0,1.2,0.4,2.3,1.2,3.2l47.3-80.9 C241.2,226,239.9,226.2,238.7,226.9z"></path> <path class="st4" d="M242.7,333.2c0.3-0.1,0.7-0.2,1-0.4l41.9-24.3c1.6-0.9,2.3-2.6,2.3-4.4v-48.5c0-1.2-0.4-2.4-1.1-3.3 L242.7,333.2z"></path> <path class="st5" d="M285.6,251.1l-41.8-24.3c-0.4-0.2-0.9-0.4-1.3-0.5l-47.3,80.9c0.4,0.5,0.9,0.9,1.4,1.2l42.1,24.3 c1.3,0.7,2.7,0.9,4,0.4l44.2-80.9C286.6,251.8,286.2,251.4,285.6,251.1z"></path> </g> <g style="clip-path:url(#XMLID_00000094596905197664674420000000580685208057615294_);"> <path class="st4" d="M197.1,250.8l-0.5,0.3c-1.6,0.9-2.6,2.6-2.6,4.4v48.5c0,1.8,1,3.5,2.6,4.4l42.1,24.3 c1.1,0.7,2.4,0.8,3.7,0.5L197.1,250.8z"></path> <path class="st4" d="M288,255.5c0-1.8-0.8-3.5-2.4-4.4l-41.8-24.3c-0.4-0.2-0.8-0.4-1.2-0.5l45.4,77.5V255.5z"></path> <linearGradient id="SVGID_1_" gradientUnits="userSpaceOnUse" x1="193.545" y1="279.7339" x2="290.7228" y2="279.7339"> <stop offset="0" style="stop-color:#5C5C5C"></stop> <stop offset="0.1765" style="stop-color:#545454"></stop> <stop offset="0.4577" style="stop-color:#3D3D3D"></stop> <stop offset="0.8062" style="stop-color:#171717"></stop> <stop offset="0.9947" style="stop-color:#000000"></stop> </linearGradient> <path class="st6" d="M243.7,332.7l41.9-24.3c1.6-0.9,2.3-2.6,2.3-4.4v-0.2l-45.4-77.5c-1.3-0.4-2.7-0.2-3.9,0.5l-41.6,24 l45.2,82.4C242.8,333.2,243.3,333,243.7,332.7z"></path> </g> </g> </g> </g> </svg> 