<svg xmlns="http://www.w3.org/2000/svg" data-name="Layer 1" width="924.766" height="641.989"><path d="M764.224 548.827c3.74-30.077 22.38-59.713 51.065-69.5a139.647 139.647 0 00.007 95.876c4.408 11.923 10.552 24.725 6.406 36.742-2.58 7.477-8.89 13.197-15.945 16.774-7.054 3.577-14.883 5.282-22.614 6.952l-1.522 1.259c-12.273-27.713-21.138-58.025-17.397-88.103z" fill="#f0f0f0"/><path d="M815.574 479.895a119.36 119.36 0 00-29.673 67.176 51.4 51.4 0 00.585 16.094 29.48 29.48 0 007.332 13.674c3.305 3.63 7.106 6.962 9.47 11.333a18.051 18.051 0 01.882 14.736c-2.087 5.988-6.202 10.869-10.392 15.502-4.652 5.144-9.565 10.413-11.543 17.233-.24.826-1.507.406-1.268-.419 3.44-11.865 14.958-18.604 20.451-29.291 2.563-4.987 3.639-10.776 1.236-16.04-2.101-4.603-6.018-8.042-9.396-11.69a31.458 31.458 0 01-7.667-13.102 47.519 47.519 0 01-1.201-16.012 115.8 115.8 0 018.457-35.191 121.477 121.477 0 0121.843-35.005c.571-.64 1.451.367.884 1.002z" fill="#fff"/><path d="M786.26 538.987a17.908 17.908 0 01-13.63-18.76c.067-.856 1.402-.79 1.334.067a16.582 16.582 0 0012.716 17.424c.836.2.412 1.467-.42 1.269zM791.9 575.219a34.516 34.516 0 0015.413-19.88c.243-.825 1.511-.405 1.269.42a35.902 35.902 0 01-16.081 20.653c-.74.44-1.338-.756-.601-1.193zM799.318 502.335a10.137 10.137 0 009.606-.488c.735-.448 1.331.748.601 1.193a11.359 11.359 0 01-10.626.563.69.69 0 01-.425-.843.671.671 0 01.844-.425z" fill="#fff"/><path d="M902.725 533.049c-.45.293-.902.586-1.353.89a133.495 133.495 0 00-17.069 13.327 58.76 58.76 0 00-1.24 1.138 140.734 140.734 0 00-30.564 41.839 136.671 136.671 0 00-7.487 19.37c-2.762 9.165-5.028 19.323-10.496 26.82a23.445 23.445 0 01-1.827 2.256h-49.415c-.112-.057-.225-.102-.338-.158l-1.973.09c.08-.35.17-.71.248-1.06.046-.203.102-.406.147-.609.033-.135.068-.27.09-.394.011-.045.023-.09.034-.124.022-.124.056-.237.079-.35q.744-3.027 1.533-6.054c0-.011 0-.011.011-.023 4.048-15.367 9.414-30.53 16.912-44.398.225-.417.45-.845.699-1.262a130.413 130.413 0 0111.714-17.769 115.29 115.29 0 017.678-8.782 95.873 95.873 0 0123.991-17.971c17.723-9.358 38.242-12.943 57.183-7.227.485.146.959.293 1.443.45z" fill="#f0f0f0"/><path d="M902.614 533.676a119.36 119.36 0 00-64.137 35.771 51.4 51.4 0 00-9.223 13.202 29.48 29.48 0 00-2.378 15.332c.453 4.89 1.482 9.838.738 14.751a18.051 18.051 0 01-8.168 12.297c-5.272 3.524-11.496 4.944-17.63 6.12-6.812 1.307-13.907 2.556-19.592 6.81-.689.516-1.448-.583-.76-1.097 9.89-7.403 23.144-5.85 33.964-11.075 5.049-2.438 9.393-6.413 10.644-12.063 1.093-4.94.037-10.044-.464-14.99a31.458 31.458 0 011.766-15.078 47.519 47.519 0 018.682-13.508 115.8 115.8 0 0127.94-23.006 121.477 121.477 0 0138.516-14.798c.84-.167.938 1.166.102 1.332z" fill="#fff"/><path d="M843.632 563.209a17.908 17.908 0 01.41-23.185c.57-.643 1.596.212 1.026.856a16.582 16.582 0 00-.338 21.568c.548.662-.553 1.42-1.098.76zM826.32 595.533a34.516 34.516 0 0024.275-6.592c.691-.513 1.45.586.761 1.098a35.902 35.902 0 01-25.274 6.808c-.856-.095-.613-1.409.238-1.314zM876.124 541.806a10.137 10.137 0 007.964 5.394c.857.084.612 1.398-.239 1.314a11.359 11.359 0 01-8.823-5.948.69.69 0 01.169-.93.671.671 0 01.93.17z" fill="#fff"/><path d="M604.622 396.977a10.056 10.056 0 00-1.61-15.335l9.136-34.547-17.601 5.92-5.977 31.9a10.11 10.11 0 0016.052 12.062zM686.055 629.029l-12.26-.001-5.832-47.288 18.094.001-.002 47.288z" fill="#9e616a"/><path d="M689.182 640.913l-39.531-.002v-.5a15.387 15.387 0 0115.386-15.386h24.145z" fill="#2f2e41"/><path fill="#9e616a" d="M628.055 629.029l-12.26-.001-5.832-47.288 18.094.001-.002 47.288z"/><path d="M631.182 640.913l-39.531-.002v-.5a15.387 15.387 0 0115.386-15.386h24.145z" fill="#2f2e41"/><path data-name="Path 1095" d="M621.236 344.11l-4.706 1.3s-12.294 79.7-13.294 121.7 3 148 3 148h26l21-180 10 180h28s20-236 11-255-81-16-81-16z" fill="#2f2e41"/><circle data-name="Ellipse 219" cx="658.744" cy="179.984" r="23.493" fill="#9e616a"/><path data-name="Path 1099" d="M718.236 234.11l-36.464-23.83-37.786 1.487-36.75 20.342 14 78-6 45s54-6 66 3a51.277 51.277 0 0024 10l-2-77z" fill="#3f3d56"/><path data-name="Path 1101" d="M614.236 231.11l-3.778-.785-3.222 1.784s-9 12-9 23-11 117-11 117l20 9 16-83z" fill="#3f3d56"/><path data-name="Path 1104" d="M679.317 162.759s6.145-11.746-7.373-12.814c0 0-11.525-10.454-23.271-1.911 0 0-6.407 0-9.91 7.25 0 0-5.04-1.911-6.147 3.204 0 0-3.688 10.678 0 20.289s4.912 10.678 4.912 10.678-6.06-20.149 8.689-21.217 31.252-10.284 32.481 1.462 3.079 14.64 3.079 14.64 11.673-16.776-2.46-21.581z" fill="#2f2e41"/><path data-name="Subtraction 1" d="M375.736 300.964h-291v-218h291z" fill="#fff"/><path data-name="Subtraction 1" d="M375.736 300.964h-291v-218h291zm-288-215v212h285v-212z" fill="#e6e6e6"/><g data-name="Group 41"><circle data-name="Ellipse 220" cx="230.145" cy="192.373" r="55.409" fill="#6c63ff"/><path data-name="Path 1106" d="M253.154 187.72h-18.84v-18.839a4.433 4.433 0 00-4.432-4.433 4.433 4.433 0 00-4.433 4.433v18.84h-18.84a4.433 4.433 0 00-4.432 4.432 4.433 4.433 0 004.433 4.433h18.839v18.84a4.433 4.433 0 004.433 4.432 4.433 4.433 0 004.433-4.433v-18.839h18.839a4.433 4.433 0 004.433-4.433 4.433 4.433 0 00-4.433-4.433z" fill="#fff"/></g><path d="M108.739 82.054H0V0h108.739z" fill="#fff"/><path d="M108.739 82.054H0V0h108.739zM2 80.054h104.739V2H2z" fill="#e6e6e6"/><path data-name="Rectangle 342" fill="#e4e4e4" d="M14.342 22.348h80.054v5.337H14.342z"/><path data-name="Rectangle 343" fill="#e4e4e4" d="M14.342 38.358h80.054v5.337H14.342z"/><path data-name="Rectangle 344" fill="#e4e4e4" d="M14.342 54.369h80.054v5.337H14.342z"/><path d="M831.739 641.054H723V559h108.739z" fill="#fff"/><path d="M831.739 641.054H723V559h108.739zm-106.739-2h104.739V561H725z" fill="#e6e6e6"/><path data-name="Rectangle 342" fill="#e4e4e4" d="M737.342 581.348h80.054v5.337h-80.054z"/><path data-name="Rectangle 343" fill="#e4e4e4" d="M737.342 597.358h80.054v5.337h-80.054z"/><path data-name="Rectangle 344" fill="#e4e4e4" d="M737.342 613.369h80.054v5.337h-80.054z"/><path d="M765.701 493.822l-81.22-72.3 54.557-61.29 81.22 72.3z" fill="#fff"/><path d="M765.701 493.822l-81.22-72.3 54.557-61.29 81.22 72.3zm-78.397-72.464l78.233 69.64 51.898-58.301-78.233-69.64z" fill="#e6e6e6"/><path data-name="Rectangle 342" fill="#e4e4e4" d="M731.342 390.447l3.549-3.986 59.795 53.227-3.548 3.987z"/><path data-name="Rectangle 343" fill="#e4e4e4" d="M720.698 402.406l3.548-3.986 59.796 53.227-3.549 3.986z"/><path data-name="Rectangle 344" fill="#e4e4e4" d="M710.052 414.365l3.548-3.986 59.796 53.227-3.549 3.987z"/><path d="M170.307 130.054H49V38.517h121.307z" fill="#fff"/><path d="M170.307 130.054H49V38.517h121.307zM51.23 127.823h116.844V40.748H51.231z" fill="#e6e6e6"/><path data-name="Rectangle 342" fill="#6c63ff" d="M65 63.448h89.306v5.954H65z"/><path data-name="Rectangle 343" fill="#6c63ff" d="M65 81.308h89.306v5.954H65z"/><path data-name="Rectangle 344" fill="#6c63ff" d="M65 99.169h89.306v5.954H65z"/><path d="M485.117 369.688H300V230h185.117z" fill="#fff"/><path d="M485.117 369.688H300V230h185.117zm-181.712-3.404h178.307v-132.88H303.405z" fill="#e6e6e6"/><path data-name="Rectangle 342" fill="#6c63ff" d="M324.416 268.045h136.283v9.086H324.416z"/><path data-name="Rectangle 343" fill="#6c63ff" d="M324.416 295.3h136.283v9.086H324.416z"/><path data-name="Rectangle 344" fill="#6c63ff" d="M324.416 322.558h136.283v9.086H324.416z"/><path d="M923.576 641.99H443.282a1.19 1.19 0 010-2.382h480.294a1.19 1.19 0 110 2.381z" fill="#cacaca"/><path d="M705.805 396.224a10.056 10.056 0 015.502-14.405l.06-35.734 15.485 10.249-2.431 32.363a10.11 10.11 0 01-18.616 7.527z" fill="#9e616a"/><path data-name="Path 1100" d="M707.236 238.11l6.918-6.669 5.082 3.668s5 6 9 24 0 117 0 117l-22-3 3-52-9-44z" fill="#3f3d56"/></svg>