<svg id="Layer_1" data-name="Layer 1" xmlns="http://www.w3.org/2000/svg" viewBox="0 0 210 210"><defs><style>.cls-3{fill:#fff}.cls-10{fill:#005eb8}</style></defs><g id="Rectangle-290"><path id="path-1" d="M102.6 5h4.9a97.6 97.6 0 0197.6 97.6v4.9a97.6 97.6 0 01-97.6 97.6h-4.9A97.75 97.75 0 015 107.4v-4.9A97.58 97.58 0 01102.6 5z" fill="#eee" stroke="#fff" stroke-width="9.76"/><path id="path-1-2" data-name="path-1" d="M102.6 5h4.9a97.6 97.6 0 0197.6 97.6v4.9a97.6 97.6 0 01-97.6 97.6h-4.9A97.75 97.75 0 015 107.4v-4.9A97.58 97.58 0 01102.6 5z" fill="none" stroke="#f2eded" stroke-width="2.44"/></g><path class="cls-3" d="M51.25 80.15H159v61.25a5.77 5.77 0 01-5.94 5.77H56.94A5.77 5.77 0 0151 141.4V80.15z"/><path d="M58.49 62.82h93a7.12 7.12 0 017.24 7V80.4H51.25V69.85a7.12 7.12 0 017.24-7.03z" fill="#ed8b00"/><ellipse class="cls-3" cx="132.91" cy="71.36" rx="2.58" ry="2.51"/><ellipse class="cls-3" cx="140.4" cy="71.36" rx="2.58" ry="2.51"/><ellipse class="cls-3" cx="147.9" cy="71.36" rx="2.58" ry="2.51"/><path class="cls-3" d="M61.33 70.36h35.92v2.51H61.33z"/><path d="M137.67 88.75H69.76a8.33 8.33 0 00-8.43 8.19 8.33 8.33 0 008.43 8.19h67.91a8.33 8.33 0 008.43-8.19 8.33 8.33 0 00-8.43-8.19z" fill-rule="evenodd" fill="#9cd4f7"/><path d="M137.67 88.75h-12.3v16.37h12.3a8.33 8.33 0 008.43-8.19 8.33 8.33 0 00-8.43-8.18z" fill="#005eb8" fill-rule="evenodd"/><path d="M139.67 100.37l-2.11-2.05a4.5 4.5 0 00-.77-5.54 4.81 4.81 0 00-6.66 0 4.51 4.51 0 000 6.51 4.81 4.81 0 005.69.73l2.13 2.07a1.25 1.25 0 001.73 0 1.19 1.19 0 000-1.72zm-4-4.34a2.13 2.13 0 01-.66 1.54 2.38 2.38 0 01-3.21 0 2.13 2.13 0 010-3.08 2.32 2.32 0 013.21 0 2.13 2.13 0 01.71 1.51z" fill="#f4f6f8"/><path fill="#0a0080" d="M61.33 112.64h34.53v23.96H61.33z"/><path fill="#0a84f2" d="M78.59 128.62l-17.26-15.98h34.53l-17.27 15.98z"/><path class="cls-10" d="M82.66 124.86l13.2 11.74v-23.96l-13.2 12.22zM61.33 112.64v23.96l13.2-11.74-13.2-12.22zM146.1 136.41h-36.73v-16.23h5.13v11.11h26.47v-11.11h5.13v16.23z"/><path class="cls-10" d="M131.32 119.9v-6.82h-7.18v6.82h-5.13l8.72 8.72 8.73-8.72h-5.14z"/></svg>