<svg id="Layer_1" data-name="Layer 1" xmlns="http://www.w3.org/2000/svg" viewBox="0 0 210 210"><defs><style>.cls-1{fill:#eee;stroke:#fff;stroke-width:9.76px;}.cls-2{fill:none;stroke:#f2eded;stroke-width:2.44px;}.cls-3{fill:#fff;}.cls-4{fill:#ed8b00;}.cls-5{fill:#9cd4f7;}.cls-5,.cls-6{fill-rule:evenodd;}.cls-10,.cls-6{fill:#005eb8;}.cls-7{fill:#f4f6f8;}.cls-8{fill:#0a0080;}.cls-9{fill:#0a84f2;}</style></defs><title>-</title><g id="Rectangle-290"><path id="path-1" class="cls-1" d="M102.6,5h4.9a97.6,97.6,0,0,1,97.6,97.6v4.9a97.6,97.6,0,0,1-97.6,97.6h-4.9A97.75,97.75,0,0,1,5,107.4v-4.9A97.58,97.58,0,0,1,102.6,5Z"/><path id="path-1-2" data-name="path-1" class="cls-2" d="M102.6,5h4.9a97.6,97.6,0,0,1,97.6,97.6v4.9a97.6,97.6,0,0,1-97.6,97.6h-4.9A97.75,97.75,0,0,1,5,107.4v-4.9A97.58,97.58,0,0,1,102.6,5Z"/></g><path class="cls-3" d="M51.25,80.15H159V141.4a5.77,5.77,0,0,1-5.94,5.77H56.94A5.77,5.77,0,0,1,51,141.4V80.15Z"/><path class="cls-4" d="M58.49,62.82h93a7.12,7.12,0,0,1,7.24,7V80.4H51.25V69.85A7.12,7.12,0,0,1,58.49,62.82Z"/><ellipse class="cls-3" cx="132.91" cy="71.36" rx="2.58" ry="2.51"/><ellipse class="cls-3" cx="140.4" cy="71.36" rx="2.58" ry="2.51"/><ellipse class="cls-3" cx="147.9" cy="71.36" rx="2.58" ry="2.51"/><rect class="cls-3" x="61.33" y="70.36" width="35.92" height="2.51"/><path class="cls-5" d="M137.67,88.75H69.76a8.33,8.33,0,0,0-8.43,8.19h0a8.33,8.33,0,0,0,8.43,8.19h67.91a8.33,8.33,0,0,0,8.43-8.19h0A8.33,8.33,0,0,0,137.67,88.75Z"/><path class="cls-6" d="M137.67,88.75h-12.3v16.37h12.3a8.33,8.33,0,0,0,8.43-8.19h0A8.33,8.33,0,0,0,137.67,88.75Z"/><path class="cls-7" d="M139.67,100.37l-2.11-2.05a4.5,4.5,0,0,0-.77-5.54,4.81,4.81,0,0,0-6.66,0,4.51,4.51,0,0,0,0,6.51,4.81,4.81,0,0,0,5.69.73l2.13,2.07a1.25,1.25,0,0,0,1.73,0,1.19,1.19,0,0,0,0-1.72Zm-4-4.34a2.13,2.13,0,0,1-.66,1.54,2.38,2.38,0,0,1-3.21,0,2.13,2.13,0,0,1,0-3.08,2.32,2.32,0,0,1,3.21,0A2.13,2.13,0,0,1,135.72,96Z"/><rect class="cls-8" x="61.33" y="112.64" width="34.53" height="23.96"/><polygon class="cls-9" points="78.59 128.62 61.33 112.64 95.86 112.64 78.59 128.62"/><polygon class="cls-10" points="82.66 124.86 95.86 136.6 95.86 112.64 82.66 124.86"/><polygon class="cls-10" points="61.33 112.64 61.33 136.6 74.53 124.86 61.33 112.64"/><polygon class="cls-10" points="146.1 136.41 109.37 136.41 109.37 120.18 114.5 120.18 114.5 131.29 140.97 131.29 140.97 120.18 146.1 120.18 146.1 136.41"/><polygon class="cls-10" points="131.32 119.9 131.32 113.08 124.14 113.08 124.14 119.9 119.01 119.9 127.73 128.62 136.46 119.9 131.32 119.9"/></svg>