<svg id="Layer_1" data-name="Layer 1" xmlns="http://www.w3.org/2000/svg" viewBox="0 0 210 210"><defs><style>.cls-1{fill:#eee;stroke:#fff;stroke-width:9.76px;}.cls-2{fill:none;stroke:#f2eded;stroke-width:2.44px;}.cls-3{fill:#005eb8;}.cls-4{fill:#0a0080;}.cls-5{fill:#fbb040;}.cls-6{fill:#ed8b00;}.cls-7{fill:#fff;}</style></defs><title>-</title><g id="Rectangle-290"><path id="path-1" class="cls-1" d="M102.6,5h4.9a97.6,97.6,0,0,1,97.6,97.6v4.9a97.6,97.6,0,0,1-97.6,97.6h-4.9A97.75,97.75,0,0,1,5,107.4v-4.9A97.58,97.58,0,0,1,102.6,5Z"/><path id="path-1-2" data-name="path-1" class="cls-2" d="M102.6,5h4.9a97.6,97.6,0,0,1,97.6,97.6v4.9a97.6,97.6,0,0,1-97.6,97.6h-4.9A97.75,97.75,0,0,1,5,107.4v-4.9A97.58,97.58,0,0,1,102.6,5Z"/></g><path class="cls-3" d="M79.93,149.53v4.62h53.58v-4.62l-9.77-6.41h-34Z"/><rect class="cls-4" x="89.69" y="128.76" width="34.05" height="14.36"/><path class="cls-3" d="M153,64.15H57a3.16,3.16,0,0,0-3.17,3.08v61.54A3.17,3.17,0,0,0,57,131.84h95.81a3,3,0,0,0,3.17-3.08V67.22a2.93,2.93,0,0,0-2.9-3.08Zm-5,63.33h-8.18V124.4H148Z"/><g id="_Group_" data-name="&lt;Group&gt;"><rect class="cls-5" x="61.98" y="72.09" width="86.04" height="48.97"/></g><rect class="cls-6" x="100.72" y="34.2" width="8.57" height="85.16" transform="translate(181.79 -28.22) rotate(90)"/><path class="cls-7" d="M88.22,107.37H83.53L82.12,101q-.1-.4-.32-1.6t-.32-2q-.08.65-.26,1.62t-.36,1.78q-.18.81-1.46,6.59H74.72L71.09,92.69h3.83l1.6,7.36q.54,2.44.74,3.89.13-1,.47-2.78t.63-2.91l1.3-5.55h3.68l1.26,5.55q.32,1.34.65,3.08t.44,2.61q.13-1.11.71-3.87L88,92.69h3.83Z"/><path class="cls-7" d="M111.64,107.37H107l-1.41-6.4q-.1-.4-.32-1.6t-.32-2q-.08.65-.26,1.62t-.36,1.78q-.18.81-1.46,6.59H98.15L94.51,92.69h3.83l1.6,7.36q.54,2.44.74,3.89.13-1,.47-2.78t.63-2.91l1.3-5.55h3.68L108,98.25q.32,1.34.65,3.08t.44,2.61q.13-1.11.71-3.87l1.63-7.38h3.83Z"/><path class="cls-7" d="M135.07,107.37h-4.69L129,101q-.1-.4-.32-1.6t-.32-2q-.08.65-.26,1.62t-.36,1.78q-.18.81-1.46,6.59h-4.69l-3.64-14.68h3.83l1.6,7.36q.54,2.44.74,3.89.13-1,.47-2.78t.63-2.91l1.3-5.55h3.68l1.26,5.55q.32,1.34.65,3.08t.44,2.61q.13-1.11.71-3.87l1.63-7.38h3.83Z"/></svg>