<svg id="Layer_1" data-name="Layer 1" xmlns="http://www.w3.org/2000/svg" viewBox="0 0 210 210"><defs><style>.cls-3{fill:#005eb8}.cls-7{fill:#fff}</style></defs><g id="Rectangle-290"><path id="path-1" d="M102.6 5h4.9a97.6 97.6 0 0197.6 97.6v4.9a97.6 97.6 0 01-97.6 97.6h-4.9A97.75 97.75 0 015 107.4v-4.9A97.58 97.58 0 01102.6 5z" fill="#eee" stroke="#fff" stroke-width="9.76"/><path id="path-1-2" data-name="path-1" d="M102.6 5h4.9a97.6 97.6 0 0197.6 97.6v4.9a97.6 97.6 0 01-97.6 97.6h-4.9A97.75 97.75 0 015 107.4v-4.9A97.58 97.58 0 01102.6 5z" fill="none" stroke="#f2eded" stroke-width="2.44"/></g><path class="cls-3" d="M79.93 149.53v4.62h53.58v-4.62l-9.77-6.41h-34z"/><path fill="#0a0080" d="M89.69 128.76h34.05v14.36H89.69z"/><path class="cls-3" d="M153 64.15H57a3.16 3.16 0 00-3.17 3.08v61.54a3.17 3.17 0 003.17 3.07h95.81a3 3 0 003.17-3.08V67.22a2.93 2.93 0 00-2.9-3.08zm-5 63.33h-8.18v-3.08H148z"/><path fill="#fbb040" d="M61.98 72.09h86.04v48.97H61.98z" id="_Group_" data-name="&lt;Group&gt;"/><path transform="rotate(90 105.005 76.785)" fill="#ed8b00" d="M100.72 34.2h8.57v85.16h-8.57z"/><path class="cls-7" d="M88.22 107.37h-4.69L82.12 101q-.1-.4-.32-1.6t-.32-2q-.08.65-.26 1.62t-.36 1.78l-1.46 6.59h-4.68l-3.63-14.7h3.83l1.6 7.36q.54 2.44.74 3.89.13-1 .47-2.78t.63-2.91l1.3-5.55h3.68l1.26 5.55q.32 1.34.65 3.08t.44 2.61q.13-1.11.71-3.87l1.6-7.38h3.83zM111.64 107.37H107l-1.41-6.4q-.1-.4-.32-1.6t-.32-2q-.08.65-.26 1.62t-.36 1.78l-1.46 6.59h-4.72l-3.64-14.67h3.83l1.6 7.36q.54 2.44.74 3.89.13-1 .47-2.78t.63-2.91l1.3-5.55h3.68l1.24 5.55q.32 1.34.65 3.08t.44 2.61q.13-1.11.71-3.87l1.63-7.38h3.83zM135.07 107.37h-4.69L129 101q-.1-.4-.32-1.6t-.32-2q-.08.65-.26 1.62t-.36 1.78l-1.46 6.59h-4.69l-3.64-14.68h3.83l1.6 7.36q.54 2.44.74 3.89.13-1 .47-2.78t.63-2.91l1.3-5.55h3.68l1.26 5.55q.32 1.34.65 3.08t.44 2.61q.13-1.11.71-3.87l1.63-7.38h3.83z"/></svg>